<?xml version="1.0" ?><svg viewBox="0 0 60 60" xmlns="http://www.w3.org/2000/svg"><title/><g data-name="Layer 1" id="Layer_1"><path d="M35,26c.77393,0,.959,0,.99316-2H34.00684C34.041,26,34.22607,26,35,26Z"/><path d="M36.16895,18a7.07246,7.07246,0,0,0-1.05518-5.28125A1.61211,1.61211,0,0,0,34,12c-.30322,0-.792.3916-1.14014,1.14063A4.87621,4.87621,0,0,0,33.48633,18Z"/><path d="M2.59391,50.61451,18,57.46075V10.61816L3.44721,3.34177A1,1,0,0,0,2,4.2362V49.70068A1,1,0,0,0,2.59391,50.61451Z"/><path d="M36.16895,38a7.07246,7.07246,0,0,0-1.05518-5.28125A1.61211,1.61211,0,0,0,34,32c-.30322,0-.792.3916-1.14014,1.14063A4.87621,4.87621,0,0,0,33.48633,38Z"/><path d="M35,46c.77393,0,.959,0,.99316-2H34.00684C34.041,46,34.22607,46,35,46Z"/><path d="M25,36c.77393,0,.959,0,.99316-2H24.00684C24.041,36,24.22607,36,25,36Z"/><path d="M20,57.572l20-7.27209V2.48975L20,10.67151ZM25,38c-3,0-3-2.31738-3-5a.99974.99974,0,0,1,1-1h4a.99974.99974,0,0,1,1,1C28,35.68262,28,38,25,38ZM35,48c-3,0-3-2.31738-3-5a.99974.99974,0,0,1,1-1h4a.99974.99974,0,0,1,1,1C38,45.68262,38,48,35,48ZM31.04639,12.29785A3.51046,3.51046,0,0,1,34,10a3.4956,3.4956,0,0,1,2.67578,1.46875,9.30455,9.30455,0,0,1,1.2998,7.751A.99988.99988,0,0,1,37,20H33a.999.999,0,0,1-.76416-.35547A6.93744,6.93744,0,0,1,31.04639,12.29785ZM38,23c0,2.68262,0,5-3,5s-3-2.31738-3-5a.99974.99974,0,0,1,1-1h4A.99974.99974,0,0,1,38,23Zm-6.95361,9.29785A3.51046,3.51046,0,0,1,34,30a3.4956,3.4956,0,0,1,2.67578,1.46875,9.30455,9.30455,0,0,1,1.2998,7.751A.99988.99988,0,0,1,37,40H33a.999.999,0,0,1-.76416-.35547A6.93744,6.93744,0,0,1,31.04639,32.29785Zm-7.72217-10.8291A3.4956,3.4956,0,0,1,26,20a3.51046,3.51046,0,0,1,2.95361,2.29785,6.93744,6.93744,0,0,1-1.18945,7.34668A.999.999,0,0,1,27,30H23a.99988.99988,0,0,1-.97559-.78027A9.30455,9.30455,0,0,1,23.32422,21.46875Z"/><path d="M42,2.61841V50.34985L56.59386,56.836A1,1,0,0,0,58,55.92218v-44.686a1,1,0,0,0-.5528-.89443Z"/><path d="M26.51367,28a4.87621,4.87621,0,0,0,.62646-4.85937C26.792,22.3916,26.30322,22,26,22a1.61211,1.61211,0,0,0-1.11377.71875A7.07246,7.07246,0,0,0,23.83105,28Z"/></g></svg>