<?xml version="1.0" ?><svg viewBox="0 0 60 60" xmlns="http://www.w3.org/2000/svg"><title/><g data-name="Layer 1" id="Layer_1"><circle cx="18" cy="43" r="5"/><circle cx="42" cy="43" r="5"/><path d="M57.57324,56.18066,50.1723,51h2.87358a.5.5,0,0,0,.27735-.916L51.44531,48.832a1,1,0,0,1,.41309-1.82227l2.24619-.32064a.5.5,0,0,0,.15295-.9422l-1.7048-.8524a1,1,0,0,1,.13086-1.84277l1.73176-.57743a.5.5,0,0,0,0-.94865l-1.73176-.57743a1.00037,1.00037,0,0,1-.32422-1.7168l2.06952-1.7245a.5.5,0,0,0-.38212-.88026l-2.92275.3655a1.00007,1.00007,0,0,1-.95605-1.54687l1.08465-1.62725a.5.5,0,0,0-.58062-.74946L49,34a5.046,5.046,0,0,1-3.90039.30273A12.53984,12.53984,0,0,0,42,34a9.5664,9.5664,0,0,0-9.05877,6.33967A.97723.97723,0,0,1,32,41H28a.97723.97723,0,0,1-.94123-.66031A9.5664,9.5664,0,0,0,18,34a12.53984,12.53984,0,0,0-3.09961.30273A5.046,5.046,0,0,1,11,34L9.21992,32.94178a.5.5,0,0,0-.55084.75881l1.163,1.74473A1.00007,1.00007,0,0,1,8.876,36.99219l-2.92275-.3655a.5.5,0,0,0-.38212.88026l2.06952,1.7245a1.00037,1.00037,0,0,1-.32422,1.7168l-1.73176.57743a.5.5,0,0,0,0,.94865l1.73176.57743a1,1,0,0,1,.13086,1.84277l-1.7048.8524a.5.5,0,0,0,.15295.9422l2.24619.32064A1,1,0,0,1,8.55469,48.832L6.67677,50.084A.5.5,0,0,0,6.95412,51H9.8277L2.42676,56.18066a1,1,0,1,0,1.14648,1.63867l9.55237-6.68665a4.97711,4.97711,0,0,1,.93591.28235,8.8241,8.8241,0,0,0,3.30273.57715c4.1628.10077,8.44616-2.68291,9.697-6.33824A1.00651,1.00651,0,0,1,28.02336,45h3.95386a1.006,1.006,0,0,1,.96157.65417c1.25017,3.65621,5.48629,6.4329,9.69694,6.338a8.82137,8.82137,0,0,0,3.30469-.57812,4.97453,4.97453,0,0,1,.9339-.28143l9.55243,6.68671a1,1,0,1,0,1.14648-1.63867ZM19.3718,49.86875a7.0044,7.0044,0,1,1,5.497-5.497A7.01431,7.01431,0,0,1,19.3718,49.86875Zm24,0a7.0044,7.0044,0,1,1,5.497-5.497A7.01431,7.01431,0,0,1,43.3718,49.86875Z"/></g></svg>