<?xml version="1.0" ?><svg viewBox="0 0 60 60" xmlns="http://www.w3.org/2000/svg"><title/><g data-name="Layer 1" id="Layer_1"><circle cx="15" cy="45" r="5"/><path d="M8.03625,45.715,6.32959,47.25781A1.0007,1.0007,0,0,0,6,48a5.49473,5.49473,0,0,1-5,5,.99991.99991,0,0,0-.707,1.707l5,5A.99991.99991,0,0,0,7,59a5.49473,5.49473,0,0,1,5-5,1.00195,1.00195,0,0,0,.7417-.3291l1.543-1.70721A7.01346,7.01346,0,0,1,8.03625,45.715Z"/><circle cx="25" cy="35" r="4"/><path d="M19.05316,35.75732l-2.63989,2.38623a7.02164,7.02164,0,0,1,5.44312,5.44312l2.38593-2.63989A6.00492,6.00492,0,0,1,19.05316,35.75732Z"/><path d="M29.07111,26.70349,26.3537,29.15973a6.01218,6.01218,0,0,1,4.48663,4.48688l2.45636-2.71771A4.98078,4.98078,0,0,1,29.07111,26.70349Z"/><circle cx="34" cy="26" r="3"/><path d="M59.70459.29053A1.00131,1.00131,0,0,0,58.32422.2627L35.44263,21.23749a4.99093,4.99093,0,0,1,3.39111,3.54871L59.7417,1.6709A1.00005,1.00005,0,0,0,59.70459.29053Z"/></g></svg>