<?xml version="1.0" standalone="no"?>
<!DOCTYPE svg PUBLIC "-//W3C//DTD SVG 20010904//EN"
 "http://www.w3.org/TR/2001/REC-SVG-20010904/DTD/svg10.dtd">
<svg version="1.0" xmlns="http://www.w3.org/2000/svg"
 width="728.000000pt" height="728.000000pt" viewBox="0 0 728.000000 728.000000"
 preserveAspectRatio="xMidYMid meet">
<metadata>
Created by potrace 1.16, written by Peter Selinger 2001-2019
</metadata>
<g transform="translate(0.000000,728.000000) scale(0.100000,-0.100000)"
fill="#000000" stroke="none">
<path d="M486 6899 c16 -32 131 -206 208 -315 66 -95 201 -266 230 -293 36
-34 33 -47 -5 -19 -17 13 -62 46 -99 73 -37 28 -103 77 -146 109 -44 33 -133
100 -199 150 -66 49 -155 116 -198 149 -43 32 -80 57 -83 54 -7 -6 81 -97 94
-97 7 0 12 -6 12 -14 0 -8 4 -16 9 -18 5 -1 56 -46 112 -98 258 -238 452 -403
607 -518 35 -26 58 -48 53 -50 -6 -2 -46 16 -89 41 -42 25 -93 53 -112 64 -19
11 -70 41 -113 67 -43 25 -81 46 -83 46 -2 0 -99 57 -214 126 -116 70 -213
124 -216 122 -2 -3 28 -31 68 -64 40 -32 93 -74 118 -94 72 -58 273 -202 411
-294 154 -103 187 -124 214 -138 44 -21 75 -42 75 -49 0 -10 -44 2 -51 13 -7
11 -111 39 -118 33 -2 -3 4 -12 15 -21 22 -18 33 -21 -101 28 -44 16 -87 32
-96 34 -9 3 -54 21 -100 40 -207 85 -311 125 -315 122 -13 -14 418 -234 436
-223 6 3 10 2 10 -4 0 -6 17 -18 38 -27 20 -10 43 -22 50 -28 29 -22 115 -46
128 -35 9 8 11 5 7 -11 -4 -13 -11 -19 -22 -16 -38 11 -121 17 -121 9 0 -9 27
-28 74 -52 27 -13 28 -15 10 -21 -10 -4 -26 -3 -34 1 -26 14 -146 39 -217 46
-61 6 -67 5 -55 -9 32 -40 224 -111 332 -123 53 -6 179 -37 293 -71 39 -12 6
-14 -64 -4 -138 19 -149 20 -149 12 0 -12 136 -48 338 -88 43 -9 13 -21 -65
-27 -43 -4 -140 -3 -216 1 -77 4 -141 4 -144 -1 -2 -4 -13 -3 -23 3 -23 13
-250 13 -270 0 -11 -7 -8 -11 15 -20 62 -24 146 -33 335 -35 238 -3 245 -3
237 -11 -6 -6 -40 -15 -217 -53 -111 -25 -120 -28 -120 -39 0 -25 235 -38 315
-18 29 8 29 7 -12 -29 -24 -20 -43 -41 -43 -46 0 -14 28 -11 62 7 29 15 30 15
24 -1 -10 -27 33 -12 114 40 75 48 136 68 191 63 l34 -3 -75 -45 c-41 -25 -91
-54 -111 -64 -48 -25 -105 -73 -97 -81 14 -15 296 87 351 126 16 12 31 19 33
16 9 -9 -20 -47 -35 -47 -7 0 -30 -15 -51 -32 -20 -18 -70 -60 -110 -93 -94
-76 -75 -83 52 -18 51 26 98 50 103 52 6 2 -23 -29 -62 -68 -40 -40 -73 -77
-73 -83 0 -7 19 -9 54 -5 49 5 54 3 53 -13 -1 -10 -4 -17 -8 -14 -4 2 -28 -22
-54 -53 -27 -34 -42 -59 -35 -61 13 -5 167 69 213 101 16 10 30 17 32 15 2 -2
-21 -35 -52 -73 -64 -80 -93 -124 -93 -143 0 -16 17 -7 110 53 92 61 112 79
103 100 -4 12 -3 16 4 12 6 -4 13 -4 16 0 2 5 2 3 1 -4 -2 -6 -6 -28 -10 -48
-3 -20 -10 -32 -13 -26 -5 7 -16 2 -31 -14 -24 -25 -21 -47 3 -27 8 7 16 9 20
6 8 -9 -2 -34 -29 -71 -33 -44 -32 -66 2 -52 33 12 42 4 26 -21 -17 -29 -16
-46 3 -30 25 20 28 5 11 -46 -9 -26 -16 -49 -16 -51 0 -10 22 1 55 27 46 37
57 38 45 4 -14 -36 -14 -36 24 -20 24 10 36 11 38 4 2 -6 24 -13 48 -15 47 -5
69 -24 70 -61 0 -18 5 -23 22 -20 17 2 26 -6 42 -40 l21 -43 46 6 c41 5 47 3
52 -16 4 -16 11 -19 26 -14 12 4 21 2 21 -4 0 -6 -3 -11 -8 -11 -4 0 -18 -20
-31 -44 -24 -47 -27 -48 -125 -61 -41 -6 -58 -15 -100 -55 -28 -27 -47 -52
-43 -56 4 -4 27 13 50 38 42 46 50 49 157 61 20 3 16 -11 -18 -70 -36 -61 -77
-133 -114 -200 -16 -29 -34 -55 -39 -58 -5 -4 -9 -12 -9 -20 0 -11 7 -12 33
-4 17 5 70 16 117 25 47 8 92 17 100 21 8 3 28 5 43 4 15 -2 35 3 43 9 9 9 14
9 14 1 0 -7 29 -9 95 -5 68 4 95 2 95 -6 0 -7 -16 -11 -43 -9 -24 2 -47 1 -52
-2 -6 -3 -39 -6 -75 -8 -36 -1 -96 -7 -135 -12 -38 -6 -79 -12 -90 -13 -11 -2
-51 -8 -90 -15 -69 -12 -70 -12 -97 -61 -22 -39 -37 -53 -85 -75 -71 -32 -155
-55 -205 -55 -35 0 -38 -3 -48 -37 -5 -21 -23 -60 -39 -88 -34 -59 -375 -422
-405 -431 -12 -4 -33 -15 -48 -25 -40 -29 -87 -23 -210 23 -26 10 -78 91 -78
122 0 8 -27 43 -60 76 -33 34 -62 71 -65 81 -4 11 -11 19 -16 19 -21 0 -11
-17 77 -132 49 -64 87 -135 79 -148 -12 -20 -35 -9 -67 31 -59 72 -236 249
-250 249 -7 0 23 -35 67 -78 103 -100 196 -215 182 -224 -14 -9 -104 26 -131
51 -17 16 -37 20 -119 22 -53 2 -101 -1 -107 -7 -5 -5 24 -9 78 -10 76 -1 96
-5 157 -34 38 -18 87 -39 110 -47 57 -20 84 -40 96 -70 9 -23 6 -29 -26 -55
-19 -16 -40 -39 -47 -51 -10 -21 -10 -21 8 -5 35 30 95 48 185 53 l89 5 0 -44
c0 -34 7 -52 27 -77 24 -28 27 -41 26 -92 -1 -32 5 -74 13 -92 8 -19 11 -47 8
-63 -6 -31 9 -72 28 -72 7 0 8 17 3 53 -4 28 -8 75 -9 102 -2 28 -8 60 -14 72
-16 30 -15 64 4 109 10 23 16 63 16 97 -1 32 3 68 9 80 13 26 157 167 170 167
13 0 65 -118 84 -189 18 -69 18 -70 -74 -226 -26 -44 -74 -127 -106 -185 -32
-58 -75 -132 -95 -165 -21 -33 -56 -91 -78 -130 -21 -38 -92 -162 -157 -275
-65 -113 -134 -234 -154 -270 -20 -36 -60 -88 -88 -116 -42 -39 -53 -57 -53
-81 0 -53 -8 -63 -54 -63 -33 0 -48 -6 -70 -29 -15 -15 -26 -32 -25 -37 1 -5
1 -26 0 -46 -1 -38 -1 -38 -44 -38 -39 0 -46 -4 -73 -40 -33 -46 -47 -48 -114
-19 -36 16 -52 29 -61 52 -12 31 -12 32 -17 7 -3 -19 4 -31 29 -52 18 -15 44
-30 58 -33 59 -13 92 -65 41 -65 -30 0 -51 -32 -140 -219 -16 -35 -30 -74 -30
-86 0 -13 -7 -39 -15 -58 -8 -20 -15 -44 -14 -54 0 -10 9 8 20 39 11 32 28 74
39 93 11 20 20 42 20 50 0 7 7 21 16 29 8 9 12 20 9 26 -4 6 -2 9 3 8 4 -2 25
14 45 34 20 21 34 38 31 38 -2 0 7 12 21 27 14 15 25 31 25 35 0 15 66 68 84
68 11 0 31 10 44 23 20 19 18 11 -15 -52 -35 -67 -45 -78 -121 -128 -67 -45
-89 -66 -116 -113 -22 -38 -33 -66 -29 -80 5 -17 9 -12 28 29 17 35 39 61 80
91 31 23 58 40 61 37 2 -2 -25 -53 -61 -112 -36 -60 -65 -112 -65 -117 0 -4
27 -8 60 -8 33 0 60 -4 60 -9 0 -10 -48 -28 -88 -33 -32 -4 -28 -22 5 -26 30
-4 83 19 120 51 21 19 45 20 645 22 600 2 811 -3 852 -20 14 -6 17 -5 12 4
-11 18 54 -17 73 -39 9 -9 42 -28 74 -40 49 -19 60 -21 68 -9 7 11 9 11 9 -3
0 -18 41 -43 132 -79 29 -11 77 -32 107 -45 84 -39 231 -59 246 -34 3 5 11 7
18 4 16 -6 102 58 118 87 19 36 -1 35 -36 -3 -27 -29 -48 -39 -92 -48 -32 -7
-65 -16 -74 -21 -9 -5 -40 0 -80 12 -35 11 -86 27 -114 36 -27 8 -70 32 -95
53 -43 35 -177 100 -210 100 -13 1 -60 33 -60 42 0 1 143 3 317 3 341 0 335
-2 118 39 l-80 15 70 -5 c39 -3 115 -14 170 -24 61 -12 161 -22 257 -24 141
-4 159 -3 168 12 7 14 9 14 10 2 0 -13 25 -15 163 -14 229 0 247 2 247 17 0 8
14 33 31 56 l30 43 -19 42 c-24 50 -22 102 6 149 16 26 18 45 14 100 -3 46 -9
70 -19 74 -18 7 -45 71 -42 103 1 14 -2 33 -6 43 -5 12 5 37 31 80 33 55 38
69 36 120 -2 45 1 57 13 57 21 0 31 30 14 42 -11 7 -11 11 -1 15 16 6 16 24 0
20 -13 -2 -14 3 -16 81 -2 37 -6 52 -16 52 -22 0 -56 63 -58 106 -1 37 15 82
33 94 4 3 10 75 14 160 3 84 8 156 10 159 3 2 8 -10 11 -27 4 -18 11 -32 17
-32 5 0 7 13 3 31 -3 17 -6 36 -6 41 0 6 -7 8 -15 4 -17 -6 -21 19 -5 29 6 4
8 11 5 16 -10 15 20 37 56 41 l34 3 0 -195 c0 -186 1 -197 24 -239 31 -60 26
-139 -12 -179 -25 -26 -26 -30 -24 -160 0 -73 4 -135 9 -138 4 -3 8 -16 8 -30
0 -14 10 -44 22 -67 32 -60 33 -181 2 -206 -30 -24 -43 -153 -20 -191 45 -75
50 -126 18 -170 l-21 -27 28 -34 c16 -19 31 -44 35 -56 6 -20 15 -22 79 -25
66 -3 72 -5 75 -25 2 -13 6 -23 10 -23 3 0 16 10 30 23 l24 22 696 2 c602 2
690 0 649 -12 -63 -17 -81 -34 -118 -113 -31 -66 -33 -105 -9 -142 9 -13 11
-13 20 0 5 8 10 31 10 50 1 35 13 63 60 133 32 48 76 61 205 61 174 0 255 -7
255 -21 0 -19 29 -16 160 17 115 29 126 30 350 30 216 0 231 1 226 18 -2 9 -7
37 -11 62 l-6 45 15 -29 c9 -15 16 -41 16 -57 0 -15 4 -30 8 -33 5 -3 46 -6
93 -7 83 -3 84 -3 144 -50 62 -48 110 -76 154 -89 14 -5 64 -22 111 -39 61
-22 94 -29 118 -25 47 9 112 -14 123 -44 5 -13 9 -43 9 -68 0 -55 16 -58 25
-4 16 97 -34 140 -166 140 -94 0 -155 25 -301 124 -21 14 -38 33 -38 42 0 15
12 16 100 12 94 -5 118 0 87 19 -12 7 -117 176 -117 188 0 3 7 5 16 5 9 0 56
-40 103 -88 65 -66 96 -107 122 -160 36 -76 53 -88 63 -47 5 20 -5 39 -55 101
-110 139 -251 285 -292 301 -21 9 -43 25 -48 37 -5 12 -22 41 -37 66 -16 25
-46 77 -67 115 -21 39 -42 71 -46 73 -5 2 -9 8 -9 13 0 5 -25 53 -56 106 -31
54 -63 111 -72 128 -9 16 -35 61 -58 100 -39 66 -95 164 -284 495 -116 202
-240 426 -240 432 0 2 13 5 29 6 47 4 87 -42 90 -102 2 -41 -1 -48 -14 -42
-13 5 -14 2 -3 -17 10 -19 13 -20 16 -4 3 13 14 17 51 17 64 0 103 -38 105
-102 1 -37 4 -43 25 -46 15 -2 21 0 17 7 -4 6 -2 11 3 11 6 0 11 -4 11 -10 0
-5 11 -10 24 -10 30 0 46 -19 35 -45 -4 -11 -8 -38 -8 -59 -1 -33 5 -45 41
-78 41 -38 70 -46 98 -28 12 8 10 10 -10 10 -29 0 -88 34 -96 54 -3 8 -4 33
-2 57 4 44 4 44 16 17 6 -16 18 -28 26 -28 8 0 16 -4 18 -9 2 -5 10 -11 18
-13 8 -2 18 -7 22 -13 5 -6 8 -5 8 3 0 10 3 10 15 -1 8 -9 20 -17 27 -20 10
-3 10 -9 0 -27 -13 -22 -13 -22 12 -16 14 3 26 3 26 -1 1 -5 21 -30 46 -58 53
-58 48 -44 -11 35 -35 46 -41 60 -34 82 8 32 1 70 -12 62 -5 -3 -9 -20 -9 -37
0 -32 -1 -31 -80 53 -78 84 -79 85 -80 140 -1 85 -24 176 -75 295 -65 152
-115 285 -129 348 -6 25 -4 27 23 27 38 0 46 30 17 68 -36 49 -126 144 -126
134 0 -6 7 -17 15 -26 8 -8 11 -17 6 -20 -15 -10 -34 22 -27 47 4 16 -2 34
-19 57 -23 31 -25 43 -25 130 0 54 3 131 6 173 l7 77 107 0 c101 0 108 2 153
30 51 32 84 38 93 17 3 -10 35 -14 116 -16 76 -1 120 -7 140 -17 30 -15 58
-13 58 5 0 16 -75 33 -207 47 -36 4 -53 10 -53 20 0 18 -9 18 -55 -2 -36 -15
-39 -14 -58 4 -21 21 -16 42 10 42 21 0 42 29 43 57 0 27 46 71 98 95 l37 17
-37 0 c-33 1 -38 4 -38 25 0 13 -3 43 -6 68 -6 44 -5 46 26 62 18 9 44 16 57
16 14 0 21 4 18 10 -3 6 -17 7 -30 4 -27 -7 -65 3 -65 17 0 37 80 111 134 125
39 9 31 24 -11 24 -52 0 -98 -31 -123 -82 -12 -24 -36 -55 -53 -70 -30 -25
-31 -28 -20 -58 11 -29 10 -34 -14 -56 -20 -19 -24 -27 -15 -36 25 -25 10 -58
-68 -156 -54 -68 -90 -103 -111 -111 -45 -16 -130 -13 -153 4 -25 19 -40 19
-32 0 4 -12 -3 -15 -29 -15 -19 0 -35 5 -35 10 0 6 -12 4 -29 -4 -32 -17 -119
-22 -294 -17 -65 2 -119 2 -121 0 -6 -7 -26 -113 -41 -214 -8 -54 -20 -104
-25 -109 -10 -10 -5 67 5 84 5 8 35 213 35 237 0 9 -15 13 -47 14 -87 1 -145
15 -165 39 -11 13 -17 29 -14 37 3 7 -1 13 -8 13 -7 0 -18 12 -25 28 -7 15
-29 56 -50 92 -21 36 -68 116 -105 178 l-66 114 30 -7 c32 -7 31 -10 34 85 1
27 19 29 47 4 25 -22 39 -16 39 17 0 19 4 28 11 23 8 -4 9 1 5 17 -5 19 2 14
34 -21 45 -51 48 -47 20 28 -26 68 -25 80 3 54 20 -19 47 -29 47 -18 0 2 -7
17 -15 32 -11 22 -12 30 -2 33 20 7 25 21 32 103 4 43 11 78 15 78 5 0 6 -33
3 -72 l-5 -73 46 -45 c26 -25 46 -38 46 -30 -1 18 -24 50 -36 50 -6 0 -10 9
-10 20 0 25 15 26 32 3 20 -28 30 -5 11 26 -24 41 -21 54 7 28 41 -37 106 -70
106 -54 0 8 -9 22 -20 32 -11 10 -17 22 -13 28 3 5 10 3 15 -7 12 -21 28 -21
28 0 0 9 -9 18 -21 21 -13 4 -18 11 -14 21 3 9 -7 28 -27 49 l-32 33 27 -2
c14 -1 29 -8 31 -15 3 -7 10 -13 15 -13 10 0 9 13 -11 150 -6 47 -11 89 -9 94
10 36 -30 76 -42 44 -2 -7 -8 0 -12 15 -5 18 -3 33 5 40 9 9 11 8 8 -7 -1 -10
2 -21 9 -23 8 -3 11 9 9 38 -2 24 -9 45 -15 47 -16 5 -13 32 4 32 8 0 15 -9
15 -20 0 -11 10 -38 21 -60 15 -28 19 -50 15 -70 -3 -17 -2 -30 2 -30 4 0 8
-24 10 -53 2 -28 8 -54 14 -56 7 -2 36 -28 65 -57 49 -50 95 -75 110 -60 7 7
-4 32 -43 96 l-28 45 24 -17 c63 -44 130 -78 154 -78 26 0 26 1 12 28 -8 16
-51 62 -96 102 -50 45 -77 76 -70 80 8 5 1 18 -19 38 -50 49 -41 69 13 28 42
-31 137 -79 144 -71 7 7 -86 102 -139 141 -44 33 -68 79 -51 96 8 8 35 0 98
-31 88 -44 186 -81 211 -81 7 0 13 8 13 18 -1 24 -72 74 -160 111 -92 39 -123
56 -128 70 -6 18 33 13 141 -19 85 -26 117 -30 199 -29 76 1 98 4 98 15 0 8 5
14 11 14 5 0 7 -4 4 -10 -15 -24 103 -3 140 24 19 14 19 15 -8 25 -15 6 -85
18 -155 26 -257 32 -293 37 -289 41 2 3 89 6 193 8 104 2 241 11 304 20 116
17 246 51 256 68 13 21 11 21 -181 -7 -16 -2 -70 -11 -120 -20 -49 -9 -115
-20 -145 -25 -78 -13 -541 -18 -529 -5 3 2 61 15 130 29 68 13 138 27 154 30
17 4 44 9 60 12 59 10 244 78 238 87 -3 6 -1 7 6 3 25 -16 305 111 442 199
134 87 97 87 -201 0 -52 -15 -122 -36 -155 -45 l-60 -18 -12 -58 -12 -59 5 52
5 53 -33 -6 -33 -5 37 23 c27 16 38 30 39 48 0 25 0 25 9 3 7 -16 14 -21 27
-16 32 12 284 144 324 169 21 13 41 24 44 24 12 0 260 167 274 184 38 45 -40
27 -239 -56 -80 -33 -179 -73 -220 -88 -41 -16 -102 -41 -135 -56 -33 -15 -69
-29 -80 -31 -19 -4 -19 -3 0 11 17 12 48 120 37 131 -2 2 -16 -3 -31 -12 -19
-12 -16 -6 12 20 21 21 41 37 44 37 18 0 389 320 717 616 56 51 123 112 151
137 91 83 40 59 -96 -44 -204 -155 -229 -177 -222 -197 6 -14 4 -15 -9 -5 -16
14 -33 3 -189 -113 -95 -70 -163 -117 -251 -174 -69 -44 -78 -53 -83 -87 -9
-54 -15 -64 -12 -20 3 32 0 38 -15 34 -13 -4 -11 2 10 29 15 19 32 34 37 35
18 1 225 255 225 275 0 7 12 25 28 42 27 30 88 132 78 132 -3 0 -31 -33 -63
-72 -31 -40 -98 -118 -148 -173 -109 -120 -125 -142 -126 -175 -1 -18 -3 -20
-6 -7 -3 11 -11 16 -19 13 -19 -7 -18 1 6 31 11 14 20 32 20 39 0 7 7 19 15
28 24 24 99 155 124 218 38 95 21 103 -28 13 -24 -44 -52 -92 -62 -107 -11
-14 -19 -37 -19 -51 0 -15 -5 -24 -14 -23 -7 0 -39 -35 -71 -78 -100 -140
-178 -236 -259 -319 -81 -84 -86 -86 -24 -7 65 83 137 226 153 302 4 19 -16
-11 -47 -72 -56 -111 -204 -313 -307 -420 -13 -13 -14 -13 -7 5 25 59 15 88
-14 41 -8 -13 -68 -70 -132 -127 -65 -57 -118 -108 -117 -114 0 -5 27 -32 59
-60 59 -50 73 -81 44 -92 -9 -3 -14 -13 -11 -24 7 -26 -10 -34 -18 -9 -6 19
-14 23 -45 21 -10 0 -11 1 -3 5 18 8 16 17 -8 43 -12 12 -18 25 -14 29 4 4 13
-2 21 -12 10 -15 17 -17 25 -9 8 8 1 22 -26 52 -21 23 -42 41 -49 41 -6 0 -36
-22 -67 -48 -31 -26 -73 -60 -93 -77 -21 -16 -47 -38 -59 -48 -16 -14 -31 -17
-59 -13 -29 5 -47 0 -86 -23 -26 -15 -66 -34 -88 -41 -51 -17 -123 -54 -153
-80 l-25 -21 18 -49 c20 -54 15 -92 -25 -211 -10 -31 -19 -63 -19 -73 0 -9 -4
-16 -9 -16 -5 0 -12 -11 -15 -25 -4 -14 -19 -45 -35 -70 l-29 -46 -15 28 c-23
44 -151 264 -180 310 -15 24 -27 45 -27 48 0 3 -11 24 -26 46 -14 22 -33 55
-43 72 -255 446 -323 563 -331 565 -6 2 -10 8 -10 14 0 5 -35 71 -79 146 -43
76 -81 153 -85 173 -4 21 -16 49 -27 63 -11 14 -38 56 -59 93 -33 55 -40 78
-41 123 -1 38 -3 48 -8 30 -4 -13 -17 -27 -28 -30 l-22 -5 20 -45 c20 -44 20
-46 3 -78 -10 -18 -36 -48 -58 -65 -71 -56 -86 -70 -86 -84 0 -21 11 -16 54
25 l39 37 -27 -48 c-30 -52 -30 -51 26 -118 36 -45 47 -69 30 -69 -4 0 -25 23
-46 50 -21 28 -42 50 -47 50 -5 0 -21 -19 -35 -42 -14 -24 -57 -97 -95 -163
l-71 -120 6 75 c6 92 33 147 111 231 68 74 62 100 -7 32 -76 -74 -103 -138
-134 -321 -9 -53 -22 -104 -28 -112 -12 -14 -27 -40 -99 -170 -16 -30 -38 -66
-47 -80 -9 -14 -28 -47 -41 -75 -30 -59 -52 -98 -60 -105 -14 -11 -29 -51 -24
-60 3 -6 0 -10 -8 -10 -8 0 -21 -15 -28 -32 -7 -18 -21 -41 -30 -51 -9 -10
-28 -41 -43 -70 -15 -29 -40 -74 -56 -102 -16 -27 -46 -80 -67 -117 -21 -37
-41 -68 -45 -68 -9 0 -138 130 -138 140 0 4 -11 19 -24 35 -18 21 -30 27 -50
23 -15 -3 -29 -1 -32 3 -3 5 9 9 25 9 36 0 35 -3 15 46 -16 37 -15 117 1 199
6 32 8 30 -124 105 -30 17 -42 27 -109 86 -63 55 -80 63 -145 66 -30 2 -53 6
-51 9 3 5 -45 31 -66 35 -3 0 -31 13 -63 27 -32 15 -62 27 -67 27 -26 0 -180
123 -333 267 -33 30 -61 52 -64 50 -2 -3 2 -18 11 -35 14 -27 13 -42 -4 -42
-4 0 -10 12 -13 28 -3 15 -18 41 -34 58 -36 40 -155 191 -168 214 -6 9 -20 30
-32 46 -36 46 -87 127 -101 158 -7 16 -15 26 -18 23 -7 -6 79 -190 130 -278
l37 -64 -44 45 c-109 113 -325 381 -412 513 -21 31 -40 55 -42 53 -9 -8 113
-231 166 -304 13 -18 21 -35 18 -38 -3 -3 -15 10 -28 28 -13 18 -35 44 -49 59
-22 23 -61 70 -198 248 -24 31 -56 70 -70 86 -15 17 -53 63 -85 103 -32 39
-60 72 -63 72 -2 0 3 -14 12 -31z m3220 -875 c9 -13 21 -21 27 -17 6 4 7 1 2
-7 -4 -7 -4 -15 1 -19 5 -3 17 -18 27 -34 17 -27 17 -28 -8 -61 -16 -21 -23
-40 -19 -52 4 -14 3 -16 -4 -5 -12 17 -32 6 -32 -17 -1 -24 -39 26 -41 53 -1
16 -2 17 -6 3 -2 -9 3 -31 12 -48 15 -29 15 -32 -2 -53 -22 -26 -43 -33 -43
-14 0 8 -25 45 -55 84 -30 39 -55 76 -55 83 0 9 14 32 58 90 2 3 11 -4 19 -15
15 -19 15 -19 10 9 -5 32 18 80 34 70 5 -3 9 -2 8 3 -6 33 29 5 67 -53z m101
-413 c9 8 13 8 13 1 0 -6 -5 -12 -11 -14 -7 -2 0 -26 19 -63 48 -94 59 -141
66 -281 l7 -131 -33 3 -33 3 36 -11 c29 -9 38 -18 46 -47 l10 -36 2 38 c0 20
5 37 9 37 8 0 32 43 32 57 0 3 -9 -2 -20 -12 -15 -14 -20 -15 -20 -4 -1 30
-10 126 -15 177 -4 35 -3 52 5 52 6 0 13 -8 16 -17 3 -10 17 -40 32 -67 22
-43 24 -53 14 -80 -14 -35 -6 -49 12 -23 7 9 16 17 19 17 3 0 20 -26 37 -57
28 -53 30 -64 25 -118 -4 -33 -11 -82 -16 -109 -12 -65 -12 -66 11 -31 12 19
20 47 20 75 0 25 3 55 6 68 6 21 7 22 19 5 7 -10 23 -38 37 -63 14 -25 48 -83
75 -130 82 -141 104 -182 100 -186 -8 -8 -163 -81 -209 -99 -27 -10 -48 -22
-48 -27 0 -5 -3 -7 -8 -4 -4 2 -25 -4 -47 -14 -22 -11 -43 -19 -47 -20 -4 0
-46 -18 -94 -40 -48 -23 -89 -38 -93 -35 -3 3 -6 274 -7 601 -1 411 2 592 9
585 7 -7 15 -7 24 0z m-291 -252 c2 -30 4 -81 3 -114 -1 -33 -2 -239 -2 -457
-1 -219 -2 -398 -3 -398 -2 0 -18 14 -36 30 -18 17 -37 30 -43 30 -5 0 -37 12
-70 26 -33 14 -98 41 -145 59 -142 55 -240 106 -240 124 0 9 9 27 20 41 11 14
20 28 20 33 0 4 28 53 61 110 93 156 124 208 151 257 14 25 48 83 75 130 27
47 52 93 56 103 8 20 27 14 27 -9 0 -19 9 -18 48 6 18 11 40 36 49 55 9 19 18
33 20 31 2 -2 6 -27 9 -57z m162 -1234 c0 -68 6 -133 12 -144 14 -27 13 -41
-5 -41 -9 0 -15 -9 -15 -21 0 -18 2 -19 15 -9 20 16 20 -4 1 -41 -7 -15 -12
-45 -10 -68 3 -27 0 -40 -6 -36 -5 3 -10 0 -10 -9 0 -8 5 -16 11 -18 15 -5 20
-257 5 -277 -8 -10 -3 -18 17 -33 38 -28 59 -73 59 -128 0 -53 -15 -90 -37
-90 -12 0 -15 -21 -16 -117 -1 -65 -2 -172 -3 -238 -1 -112 1 -122 21 -142 45
-45 43 -115 -7 -193 -31 -48 -51 -60 -102 -60 -25 0 -28 4 -28 31 0 18 -10 47
-21 66 -27 43 -22 113 10 147 20 21 21 31 21 257 -1 167 -5 243 -14 264 -12
29 -11 30 18 40 34 11 42 38 14 43 -11 2 -18 -3 -18 -11 0 -8 -7 -17 -15 -21
-12 -4 -15 3 -14 32 0 20 3 31 6 25 2 -7 11 -13 19 -13 19 0 18 38 -2 42 -14
3 -13 7 5 30 12 14 21 33 21 41 0 11 7 14 26 11 24 -4 25 -3 11 11 -14 14 -29
90 -28 143 1 12 1 32 1 44 1 12 6 28 12 35 7 9 7 13 -1 13 -17 0 -13 26 9 67
22 41 25 63 10 63 -5 0 -10 -11 -10 -24 0 -14 -4 -28 -10 -31 -6 -4 -10 17
-10 57 0 35 -5 80 -11 101 -7 26 -7 42 1 55 9 14 10 12 5 -10 -4 -24 -2 -28
16 -28 16 0 19 4 14 18 -14 31 -16 203 -4 241 9 28 23 49 35 51 0 0 1 -56 2
-125z m-938 75 c0 -5 7 -10 15 -10 8 0 15 -9 15 -19 0 -31 21 -37 42 -11 23
29 64 35 78 12 8 -14 11 -14 18 -4 5 8 36 15 73 18 35 2 71 7 81 10 9 2 19 1
22 -4 3 -5 -25 -14 -62 -21 -37 -6 -98 -22 -137 -34 -64 -22 -70 -26 -76 -57
-5 -20 -19 -42 -36 -55 -15 -11 -35 -27 -43 -35 -35 -35 -188 -125 -197 -117
-2 3 12 34 32 70 23 41 32 68 25 72 -14 9 -3 25 13 19 8 -3 20 11 31 33 41 86
106 168 106 133z m1841 -31 c28 -36 34 -39 39 -23 6 16 10 13 24 -18 10 -20
29 -49 42 -63 13 -14 24 -32 24 -40 0 -8 5 -17 10 -20 6 -3 10 -12 10 -20 0
-10 -9 -12 -37 -8 -43 7 -163 64 -181 86 -7 8 -41 25 -75 37 -79 29 -91 40
-44 40 20 0 37 4 37 10 0 5 7 7 15 4 8 -4 15 -2 15 3 0 5 10 9 21 10 12 1 28
11 36 22 20 29 27 27 64 -20z m-386 -343 c19 -8 55 -18 81 -22 34 -5 48 -12
52 -26 3 -14 7 -16 13 -7 6 10 18 6 51 -16 99 -65 252 -202 246 -221 -1 -5 4
-40 11 -79 35 -192 56 -255 85 -255 19 0 43 40 51 84 4 20 11 36 15 36 9 0 82
-149 99 -202 7 -21 17 -40 22 -43 16 -10 10 -51 -15 -96 -13 -24 -32 -68 -41
-98 -25 -76 -16 -220 19 -320 14 -41 28 -77 31 -79 3 -3 4 19 4 49 -1 30 4 73
11 95 11 35 10 49 -5 94 -19 57 -16 118 9 200 l14 45 10 -40 c29 -108 40 -315
23 -449 -9 -64 -12 -71 -60 -117 -33 -34 -57 -68 -71 -107 -25 -65 -60 -220
-60 -265 0 -44 -37 -115 -69 -131 -14 -8 -39 -28 -55 -45 l-29 -30 -29 22
c-16 12 -40 32 -52 44 -30 30 -38 29 -24 -2 12 -27 85 -75 114 -75 10 0 31 12
47 27 15 16 26 21 22 13 -8 -21 -229 -240 -241 -240 -6 0 -21 39 -34 86 -19
72 -22 111 -22 245 0 87 3 185 7 218 4 34 3 61 -3 65 -13 8 -24 -96 -23 -224
0 -63 -3 -99 -8 -90 -8 15 -40 163 -81 375 -12 61 -24 121 -27 135 -6 24 -5
24 14 7 11 -9 25 -17 31 -17 19 0 48 -53 62 -115 8 -33 15 -52 18 -41 2 10 -1
39 -7 65 -9 37 -23 57 -71 101 l-60 55 -24 165 c-13 91 -27 187 -30 215 l-6
49 35 -34 c19 -19 35 -42 35 -51 0 -10 4 -20 8 -23 22 -13 -4 58 -34 93 -22
25 -34 50 -34 68 0 16 -4 33 -9 38 -5 6 -11 29 -13 52 -4 50 9 44 15 -7 2 -19
3 -12 2 17 -2 28 -10 62 -18 75 -8 12 -18 56 -22 96 -8 78 0 89 35 50 12 -13
27 -30 35 -39 8 -8 18 -30 21 -49 5 -23 27 -52 71 -94 l64 -61 -17 -45 c-16
-44 -16 -46 7 -82 13 -20 27 -37 30 -38 10 0 29 83 29 124 0 27 3 34 15 30 8
-3 17 -14 20 -25 6 -19 25 -27 25 -11 0 13 -36 52 -48 52 -6 0 -13 14 -17 31
-7 31 -27 71 -69 137 -12 18 -37 42 -57 52 -22 11 -52 42 -74 76 -43 64 -110
222 -99 232 3 4 8 2 10 -3 2 -6 22 -9 44 -7 25 3 40 0 40 -7 0 -6 11 -16 25
-21 16 -6 25 -18 26 -32 1 -19 2 -17 9 7 4 17 15 44 24 60 9 17 16 37 15 45 0
8 -8 -1 -17 -20 -18 -36 -54 -52 -75 -31 -6 6 -22 11 -36 11 -56 1 -67 25 -80
164 -10 106 -10 131 1 137 18 12 23 11 63 -5z m-1200 -62 c30 -23 33 -29 28
-62 -3 -20 -13 -46 -23 -57 -22 -26 -31 -53 -21 -60 5 -2 11 4 14 15 3 11 11
20 17 20 21 0 6 -88 -20 -115 -20 -21 -22 -34 -21 -99 2 -102 30 -242 44 -220
3 6 1 25 -5 42 -7 17 -9 34 -6 38 9 9 35 -18 41 -42 2 -10 5 -2 6 19 1 30 5
37 21 37 24 0 27 -35 9 -105 -9 -36 -8 -52 6 -90 10 -25 15 -48 11 -52 -3 -3
1 -17 9 -29 8 -13 14 -38 13 -56 l-3 -33 71 -6 c39 -4 88 -13 107 -20 20 -7
40 -10 44 -6 4 4 2 28 -5 53 -21 78 -35 235 -25 284 7 38 12 45 30 42 13 -2
30 8 46 28 33 38 51 39 44 3 -6 -30 -19 -155 -37 -343 -16 -168 -15 -165 -86
-234 -35 -34 -64 -70 -64 -79 0 -26 18 -20 34 11 16 30 83 98 90 91 3 -2 -4
-42 -14 -88 -17 -76 -22 -87 -65 -127 -25 -24 -51 -44 -57 -44 -6 0 -9 18 -6
45 2 27 -1 44 -7 42 -5 -2 -12 -29 -15 -59 l-5 -56 -150 -119 c-160 -128 -292
-258 -323 -320 -42 -81 -66 -203 -41 -203 6 0 26 -16 44 -35 l32 -36 6 111 c7
126 17 147 133 296 91 118 287 286 313 270 4 -3 13 -29 20 -58 12 -49 11 -58
-14 -122 -55 -146 -76 -171 -156 -188 -40 -8 -55 -16 -52 -25 8 -20 58 -16 78
7 10 11 22 20 27 20 15 0 78 51 78 64 0 6 9 28 20 49 11 21 29 74 39 119 18
76 18 85 3 122 -10 27 -12 41 -5 43 6 2 24 15 40 29 37 32 39 19 18 -94 -18
-95 -110 -471 -124 -512 -5 -14 -31 -94 -57 -178 -32 -103 -52 -152 -62 -152
-9 0 -12 -6 -8 -16 7 -17 -13 -94 -24 -94 -4 0 -44 22 -89 49 -101 61 -205
144 -220 177 -6 13 -15 24 -21 24 -5 0 -19 19 -31 41 -11 23 -41 63 -65 89
-25 27 -49 61 -54 76 -5 16 -16 47 -24 69 -27 70 -13 160 24 160 24 0 27 20 4
23 -11 2 -29 -7 -40 -19 -16 -18 -19 -35 -17 -110 1 -49 0 -89 -2 -89 -8 0
-86 153 -106 207 -12 32 -27 65 -34 73 -17 21 -46 204 -52 335 l-5 110 58 115
c55 107 59 120 59 185 0 44 -7 87 -18 117 -16 41 -17 52 -6 83 7 19 19 35 25
35 7 0 40 18 73 40 l61 41 0 50 c0 28 -5 59 -10 69 -9 16 -4 27 26 60 43 48
74 58 106 36 32 -23 140 -22 160 2 33 38 79 153 73 181 -7 35 9 111 27 122 20
13 26 11 63 -17z m-104 -53 c-5 -23 -7 -50 -4 -60 5 -22 -46 -128 -75 -154
-27 -24 -85 -32 -122 -17 -38 16 -38 25 0 45 30 15 72 83 74 118 1 16 126 121
134 113 1 -2 -2 -22 -7 -45z m1858 -308 l29 -43 -14 -67 c-16 -73 -20 -81 -33
-67 -9 9 -64 201 -75 264 l-7 35 36 -40 c20 -22 49 -59 64 -82z m944 -325 c78
-132 192 -253 377 -397 56 -43 85 -60 90 -52 4 7 13 11 20 9 8 -2 16 5 18 16
2 11 0 16 -7 12 -6 -4 -11 -3 -11 1 0 5 -7 18 -16 29 -13 16 -15 16 -10 2 11
-36 -16 -28 -59 18 -49 51 -54 63 -27 60 14 -1 17 7 17 51 -1 34 4 54 12 57 7
3 13 1 13 -5 0 -6 4 -8 8 -5 10 6 52 -73 52 -97 0 -9 4 -18 9 -21 5 -3 12 -17
15 -32 4 -14 23 -60 42 -102 27 -58 38 -97 43 -154 4 -43 4 -78 0 -78 -11 0
-460 456 -513 521 -44 53 -120 209 -102 209 2 0 15 -19 29 -42z m-3313 -120
c0 -96 -2 -104 -37 -177 l-38 -76 -3 45 c-6 79 49 327 69 314 5 -3 9 -50 9
-106z m3010 -566 c5 -9 10 -13 10 -8 0 6 16 -5 35 -24 26 -25 35 -42 34 -64
l-2 -31 -4 28 c-4 26 -27 46 -39 34 -3 -3 6 -27 19 -54 13 -26 27 -68 30 -93
5 -41 30 -114 61 -180 10 -23 68 -82 74 -76 1 2 -20 51 -48 109 -48 101 -77
204 -66 233 3 7 1 16 -4 19 -6 4 -10 11 -10 16 0 5 11 2 24 -8 22 -17 27 -41
5 -28 -5 4 -9 1 -9 -4 0 -6 6 -11 14 -11 8 0 18 -5 22 -11 4 -8 -1 -9 -17 -4
-19 5 -21 4 -9 -4 25 -18 43 -13 37 9 -3 11 -2 20 2 20 14 0 91 -60 91 -70 0
-6 -18 -10 -40 -10 -22 0 -40 -5 -40 -11 0 -5 5 -7 10 -4 6 3 10 2 10 -4 0
-15 49 -85 66 -94 8 -4 14 -15 14 -22 0 -8 8 -15 18 -15 10 0 24 -15 34 -37
10 -21 34 -56 53 -78 l36 -40 -26 51 c-37 77 -31 75 29 -7 30 -41 60 -79 65
-86 6 -7 11 -15 11 -18 0 -5 9 -16 70 -85 42 -48 39 -59 -12 -41 -17 6 -45 11
-63 11 -34 0 -98 47 -187 137 -27 26 -48 44 -48 39 0 -20 45 -86 63 -92 11 -3
36 -21 57 -40 45 -41 108 -69 174 -79 35 -5 58 -15 78 -35 26 -27 28 -34 28
-112 0 -101 -35 -232 -77 -286 -45 -59 -111 -122 -128 -122 -21 0 -88 -35
-104 -54 -11 -13 -41 -16 -187 -16 l-174 0 47 45 c26 24 45 47 42 50 -4 3 -25
-14 -49 -37 l-42 -43 -18 23 c-10 12 -22 22 -26 22 -4 0 1 -9 11 -20 32 -35 9
-43 -96 -32 -98 11 -176 26 -185 35 -3 3 -3 11 1 17 7 11 102 3 120 -11 6 -4
35 -7 65 -6 49 2 55 4 55 24 0 38 15 42 152 42 23 0 44 4 46 8 6 10 -94 10
-110 0 -6 -4 -22 -3 -35 1 -25 10 -49 5 -61 -12 -4 -6 -5 6 -1 27 4 25 3 37
-5 37 -7 0 -9 -5 -6 -10 4 -6 1 -17 -5 -25 -7 -8 -9 -22 -6 -31 5 -13 1 -15
-27 -9 -24 5 -28 4 -17 -4 13 -10 13 -12 0 -21 -19 -12 -27 -12 -35 0 -3 6
-17 10 -30 10 -27 0 -42 15 -22 23 7 3 26 3 43 1 28 -4 28 -4 6 8 -18 9 -34 9
-64 1 -30 -8 -46 -8 -66 3 -30 14 -89 17 -229 10 -51 -3 -93 -2 -93 2 0 17 79
80 131 105 36 17 65 39 82 64 15 21 45 57 67 78 39 38 45 40 108 42 93 4 146
16 190 46 47 33 80 36 116 12 28 -18 29 -19 42 0 8 10 14 24 14 29 0 6 -5 3
-11 -6 -5 -10 -15 -18 -20 -18 -6 0 -8 4 -5 9 6 9 -42 26 -59 21 -5 -1 -17 -3
-25 -4 -9 -1 -42 -17 -74 -36 -55 -31 -67 -34 -154 -35 -87 -2 -96 0 -118 22
-28 28 -29 35 -9 72 8 17 30 35 54 45 26 10 46 27 57 48 23 45 39 55 102 61
55 6 89 21 52 24 -11 1 -22 -2 -25 -8 -4 -5 -22 -9 -42 -9 -35 0 -36 1 -30 34
4 24 1 39 -9 47 -8 6 -14 17 -14 23 0 6 -9 17 -20 24 -19 12 -19 12 1 47 17
28 26 34 47 31 44 -6 61 -16 56 -34 -2 -9 2 -5 9 10 l13 28 11 -30 c9 -23 8
-30 -3 -34 -8 -3 -14 -12 -14 -21 0 -13 4 -14 20 -5 17 9 20 8 20 -12 0 -36
43 -103 67 -106 20 -3 21 -1 11 40 -5 24 -13 47 -19 52 -5 6 -9 17 -9 26 0 9
-10 21 -22 27 -22 10 -60 92 -64 136 -1 17 4 19 56 21 14 1 24 6 23 14 -2 6 4
12 13 12 8 0 13 -4 9 -9 -3 -5 0 -13 6 -17 8 -4 9 3 4 25 -8 38 2 41 17 4 8
-20 12 -23 15 -12 5 22 -32 114 -57 139 -11 11 -20 27 -20 35 0 20 -31 97 -37
91 -3 -3 5 -35 17 -71 17 -51 20 -72 12 -88 -10 -21 -11 -21 -11 -2 -1 11 -11
26 -22 33 -19 12 -21 20 -16 70 4 33 12 61 21 68 10 7 12 14 5 21 -5 5 -7 32
-3 65 l6 56 44 -30 c24 -16 48 -37 54 -46z m-435 -69 c-11 -60 -65 -213 -98
-278 -27 -53 -31 -57 -36 -36 -9 35 25 195 53 250 23 45 68 101 82 101 3 0 3
-17 -1 -37z m-891 -428 c22 -129 57 -288 66 -299 9 -10 7 43 -4 97 -5 23 -4
37 2 37 11 0 38 -157 28 -167 -3 -4 -6 -1 -6 5 0 7 -4 12 -10 12 -6 0 -8 -19
-5 -44 2 -27 -1 -50 -9 -62 -13 -17 -15 -15 -25 21 -28 106 -75 523 -57 504 2
-2 11 -49 20 -104z m-2459 -25 c-4 -6 -10 -8 -15 -5 -7 4 -22 -46 -15 -53 1
-1 17 11 35 28 36 34 40 35 40 17 0 -7 -33 -47 -72 -88 -40 -41 -82 -85 -93
-98 -17 -21 -18 -24 -2 -18 14 5 17 1 17 -22 0 -31 -16 -49 -50 -56 -12 -2
-28 -9 -36 -16 -7 -6 -19 -9 -26 -6 -8 4 -7 6 5 6 20 1 23 21 3 21 -19 0 -46
-27 -46 -46 0 -17 17 -19 22 -3 2 7 9 5 17 -5 12 -14 12 -16 -3 -10 -11 4 -16
2 -14 -7 2 -8 -3 -13 -10 -11 -8 1 -11 -1 -9 -5 9 -15 -13 -53 -35 -64 -46
-20 -65 -34 -61 -46 2 -6 -5 -14 -16 -18 -12 -3 -21 -11 -21 -16 0 -22 -19 -6
-33 29 -11 27 -12 52 -7 97 11 79 38 155 56 155 8 0 14 -6 13 -12 -3 -28 2
-35 29 -33 53 3 69 20 70 72 2 61 20 76 84 70 57 -5 70 6 72 64 2 41 24 68 38
46 4 -6 9 0 13 16 5 20 13 27 32 27 14 0 22 -4 18 -10z m3539 -52 c22 -44 20
-71 -8 -95 -13 -11 -32 -34 -41 -51 -10 -17 -28 -35 -40 -40 -13 -6 -39 -25
-59 -42 -20 -18 -36 -27 -36 -22 0 6 15 23 34 39 36 30 53 67 36 78 -5 3 -10
-1 -10 -10 0 -19 -68 -91 -77 -82 -7 8 18 48 57 87 16 16 27 30 24 30 -3 0 4
13 15 29 12 16 21 32 21 35 0 16 52 86 60 81 5 -3 16 -19 24 -37z m-3124 -48
c22 -22 26 -65 8 -107 -6 -15 -10 -34 -9 -41 1 -8 -3 -20 -10 -28 -10 -13 -15
-12 -35 7 -13 12 -27 20 -30 16 -4 -4 1 -9 10 -13 28 -11 18 -32 -21 -43 -28
-8 -30 -9 -8 -6 17 2 40 7 52 11 19 5 21 3 16 -18 -3 -12 -16 -46 -29 -75 -13
-28 -24 -59 -24 -67 0 -20 -19 -20 -45 -2 -29 19 -74 25 -108 13 -25 -8 -32
-7 -42 6 -7 10 -18 17 -24 17 -8 0 -6 -8 6 -23 15 -21 23 -23 71 -19 54 5 121
-19 123 -43 0 -5 2 -32 4 -58 2 -44 18 -78 30 -66 2 3 1 28 -4 57 -4 28 -6 54
-4 56 3 2 16 -2 31 -10 14 -7 37 -11 49 -8 14 4 23 2 23 -5 0 -6 17 -11 40
-11 47 0 120 -34 120 -55 0 -8 -4 -15 -10 -15 -5 0 -10 -4 -10 -10 0 -5 6 -10
13 -10 6 0 19 -25 28 -55 l16 -55 -37 0 c-20 0 -40 -3 -44 -7 -24 -25 -147
-48 -175 -34 -13 7 -28 8 -43 2 l-23 -10 25 -1 c14 0 35 -6 48 -13 19 -11 4
-13 -102 -13 l-126 1 -6 44 c-5 33 -1 56 15 96 25 60 22 74 -29 130 -29 32
-39 55 -49 105 -7 36 -21 80 -32 98 -10 18 -19 39 -18 45 0 7 5 1 10 -12 l9
-24 26 24 26 24 -32 9 c-21 6 -29 14 -25 23 3 8 5 21 5 28 0 9 8 12 24 9 19
-3 25 1 32 24 4 15 7 32 6 37 -1 6 17 11 39 12 27 1 47 9 64 25 39 38 51 46
81 51 63 9 85 6 104 -13z m260 -60 l-25 -8 25 -1 c19 -1 40 -20 85 -78 64 -83
188 -213 243 -255 l34 -25 -36 2 c-20 1 -39 5 -43 9 -3 3 -11 -2 -18 -11 -11
-14 -13 -12 -19 18 -8 46 -68 103 -124 120 -33 9 -46 20 -59 46 -8 19 -23 39
-32 46 -9 7 -25 31 -35 55 -11 23 -23 42 -27 42 -5 0 -8 11 -7 25 2 21 7 25
33 24 29 -1 29 -1 5 -9z m-183 -41 c22 -26 32 -30 58 -26 44 7 99 -26 92 -54
-4 -15 1 -23 19 -29 13 -5 24 -14 24 -19 0 -6 14 -31 32 -56 23 -32 39 -45 56
-45 32 0 98 -54 104 -84 7 -33 -3 -46 -32 -44 -14 1 -38 0 -55 -2 -21 -2 -14
-5 25 -9 41 -4 56 -10 58 -23 2 -13 -10 -21 -49 -32 -67 -20 -105 -19 -149 2
-38 19 -38 21 -24 114 7 52 1 61 -95 138 -114 91 -113 90 -105 148 3 28 9 52
11 52 2 0 16 -14 30 -31z m-463 -164 c7 -5 19 -30 26 -55 7 -25 17 -49 22 -54
4 -6 8 -20 8 -33 0 -12 20 -45 45 -73 l45 -50 -21 -52 c-13 -34 -19 -70 -18
-102 l3 -51 -47 -3 c-42 -3 -47 -1 -53 22 -3 13 -13 31 -22 38 -25 22 -95 39
-106 28 -6 -6 -27 -10 -49 -10 l-38 0 2 55 c1 30 0 57 -3 60 -8 8 -21 -103
-13 -115 15 -24 -29 -7 -53 20 -15 17 -32 30 -39 30 -7 0 -22 5 -33 10 -11 6
-29 14 -40 20 -16 8 -18 7 -13 -8 4 -12 3 -14 -5 -7 -7 6 -15 32 -18 58 -6 43
-5 47 15 47 13 0 21 7 22 18 0 13 2 14 6 2 3 -8 9 -17 14 -20 13 -9 22 -60 10
-60 -6 0 -11 9 -11 19 0 11 -5 23 -12 27 -8 5 -9 2 -5 -9 4 -12 1 -17 -11 -17
-13 0 -10 -6 12 -25 31 -26 41 -31 31 -15 -3 6 -2 10 4 10 6 0 13 11 17 24 3
13 15 33 27 43 49 43 88 94 81 105 -5 8 -2 9 9 5 11 -4 22 2 33 18 9 14 23 25
30 25 8 0 14 5 14 11 0 6 26 37 58 68 54 53 57 55 60 31 2 -13 9 -29 16 -35z
m3329 29 c-2 -7 7 -25 21 -39 14 -14 26 -31 26 -36 0 -14 -113 -139 -125 -139
-6 0 -27 -11 -47 -25 -40 -27 -48 -24 -85 31 -18 29 -11 41 30 52 25 6 35 16
43 43 6 19 23 47 38 63 14 16 26 31 26 35 0 4 7 16 15 28 13 19 19 21 40 11
13 -6 21 -16 18 -24z m-2876 -4 c23 -17 65 -52 94 -79 l51 -48 -7 -51 c-8 -57
-13 -60 -51 -35 -16 10 -42 16 -64 15 -21 -2 -41 2 -45 8 -3 5 -23 10 -44 10
-20 0 -45 6 -55 13 -17 12 -17 16 -4 43 9 16 18 42 22 58 13 53 35 96 49 96 7
0 32 -14 54 -30z m4044 -47 c72 -109 85 -126 118 -162 17 -18 28 -37 25 -42
-3 -5 6 -20 20 -34 13 -13 33 -38 42 -55 19 -31 41 -42 30 -15 -3 9 0 15 9 15
10 0 15 -10 15 -30 0 -16 -4 -30 -10 -30 -11 0 27 -67 44 -78 24 -14 56 -182
35 -182 -5 0 -8 3 -7 8 1 4 -4 42 -12 85 l-13 77 -331 0 -331 0 54 31 c140 81
256 255 251 377 -4 70 -1 102 8 102 5 0 28 -30 53 -67z m-4961 -170 c0 -20 -5
-33 -12 -33 -13 0 -58 -58 -58 -74 0 -4 -7 -14 -15 -22 -16 -17 -20 -54 -6
-54 20 0 42 32 36 54 -5 15 -4 17 3 7 9 -12 12 -12 24 0 8 8 19 23 26 34 10
17 11 15 12 -22 0 -24 -4 -43 -10 -43 -5 0 -10 -7 -10 -15 0 -8 5 -15 11 -15
7 0 0 -9 -14 -20 -14 -11 -34 -20 -45 -20 -12 0 -24 -4 -27 -10 -3 -5 1 -10 9
-10 19 0 21 -16 4 -27 -12 -7 -198 -13 -198 -5 0 3 71 132 157 287 21 39 50
85 63 103 l25 34 12 -59 c7 -32 12 -73 13 -90z m1490 2 c7 -9 14 -33 16 -53 2
-20 3 -40 3 -43 1 -3 19 -13 40 -22 56 -25 67 -77 16 -77 -27 0 -134 52 -183
89 -30 22 -33 29 -28 59 3 19 10 40 17 48 16 20 103 19 119 -1z m-150 -135
c29 -27 61 -52 72 -56 20 -6 24 -19 8 -29 -5 -3 -10 -11 -10 -17 0 -6 9 -3 20
7 19 17 50 15 50 -5 0 -5 -9 -19 -19 -29 -16 -16 -29 -19 -78 -15 -78 7 -83
10 -83 37 0 25 -35 65 -47 53 -4 -3 -1 -12 5 -18 24 -24 12 -31 -42 -24 -84 9
-105 21 -126 68 -27 60 -26 72 8 65 15 -4 41 -9 58 -12 22 -5 118 13 130 24 0
1 24 -21 54 -49z m2051 -1 l16 -50 -25 6 c-13 3 -31 13 -39 20 -19 19 -20 19
-26 -5 -3 -10 0 -18 5 -17 5 1 15 -6 21 -15 9 -14 9 -23 -1 -38 -7 -12 -10
-25 -7 -30 6 -10 1 -11 -50 -12 -59 -1 -86 2 -81 10 2 4 1 26 -3 49 -7 34 -5
43 8 47 9 3 22 9 29 12 6 3 12 1 12 -6 0 -6 -4 -9 -9 -5 -5 3 -12 1 -15 -4 -3
-5 8 -11 25 -13 25 -4 32 -1 40 19 12 32 11 36 -3 27 -7 -4 -3 4 10 18 12 13
20 26 18 29 -2 2 10 5 27 6 30 2 33 -1 48 -48z m-1693 -25 c26 -17 27 -25 8
-62 -24 -47 -46 -59 -98 -54 -42 4 -48 7 -48 27 0 15 8 26 19 30 21 6 36 39
32 67 -2 15 3 17 31 12 18 -4 43 -13 56 -20z m-1556 -4 c11 0 22 -8 25 -18 6
-26 37 -42 101 -52 37 -7 68 -6 93 1 43 13 79 -1 79 -30 0 -17 -9 -20 -67 -23
-38 -2 -92 0 -122 5 -66 9 -166 56 -166 77 0 8 -4 18 -10 23 -13 9 15 28 33
22 8 -3 23 -5 34 -5z"/>
<path d="M6760 6473 c-41 -25 -127 -77 -190 -115 -63 -38 -158 -96 -210 -129
-52 -32 -129 -78 -171 -101 l-76 -42 -10 -63 c-5 -35 -7 -63 -5 -63 21 0 251
144 327 205 22 17 65 49 95 70 50 35 84 62 235 189 131 110 133 126 5 49z"/>
<path d="M272 745 c-7 -14 -12 -38 -12 -53 0 -40 -69 -167 -121 -223 -34 -37
-53 -49 -75 -49 -57 -1 -87 -52 -41 -69 30 -12 50 1 97 62 22 29 62 75 89 104
41 43 51 59 55 100 4 26 11 70 16 97 12 56 8 68 -8 31z"/>
</g>
</svg>
