<?xml version="1.0" ?><svg viewBox="0 0 60 60" xmlns="http://www.w3.org/2000/svg"><title/><g data-name="Layer 1" id="Layer_1"><path d="M16.49054,42.07648l3.458,3.458q.47589-1.09058.89459-2.27728l-2.09052-2.09052Q17.57956,41.6076,16.49054,42.07648Z"/><path d="M47.707,7.707,34.166,21.248a3,3,0,0,0-.562.77979l-2.48,4.96045a4.99854,4.99854,0,0,1-.70916,1.05636l-6.04627,6.90989L25.95807,36.544l6.94573-7.81633a2.98685,2.98685,0,0,0,.439-.64857l2.47217-4.9458a4.98865,4.98865,0,0,1,.93474-1.297L49.06787,9.51807a9.00079,9.00079,0,0,1,3.20445-2.0633l5.40323-2.026A.5.5,0,0,0,58,4.96061v-2.304a.49987.49987,0,0,0-.58092-.49883C54.04285,2.79483,50.15,5.264,47.707,7.707Z"/><path d="M2.62546,57.95464c7.50726-.428,12.91489-3.89117,16.40872-10.50639L14.548,42.962C6.9087,46.66616,2.71962,51.50082,2.08493,57.39471A.51769.51769,0,0,0,2.62546,57.95464Z"/><path d="M33.293,44.70947l-1.856,1.856-.48816-1.465a1.0004,1.0004,0,0,0-.29455-.44029l-6.65594-5.75848.66187-.82739L23.0824,36.49646l-2.74268,3.4292,1.57745,1.57745.82587-1.03235,2.30383,2.02289.9082,8.55371L24.293,52.70947A.99989.99989,0,1,0,25.707,54.12354l2-2a1.00073,1.00073,0,0,0,.28751-.81334l-.7377-6.94448,1.88135,1.62744.91309,2.73975a1,1,0,0,0,1.65576.39063l3-3A.99989.99989,0,0,0,33.293,44.70947Z"/></g></svg>