<?xml version="1.0" encoding="iso-8859-1"?>
<!-- Generator: Adobe Illustrator 21.0.0, SVG Export Plug-In . SVG Version: 6.00 Build 0)  -->
<svg xmlns="http://www.w3.org/2000/svg" xmlns:xlink="http://www.w3.org/1999/xlink" version="1.1" id="Capa_1" x="0px" y="0px" viewBox="0 0 512 512" style="enable-background:new 0 0 512 512;" xml:space="preserve" width="512" height="512">
<g>
	<path d="M356.973,0h-270c-8.284,0-15,6.716-15,15v331c0,8.284,6.716,15,15,15h92.184c-24.391,54.592-0.127,98.627,29.204,142.622   c0.452,0.44,4.129,8.378,13.612,8.378h165c6.892,0,12.897-4.696,14.558-11.385l36.242-145.968   c6.748-26.994-1.907-55.325-22.589-73.937l-43.211-38.89V15C371.973,6.716,365.257,0,356.973,0z M101.973,30h240v301h-53.51   c-4.268-11.559-6.49-23.824-6.49-36.333v-39.113c0-24.608-19.913-44.555-44.7-44.554h-0.752   c-24.563,0.001-44.538,19.988-44.538,44.553l-0.002,55.052c0,6.609-0.768,13.42-2.27,20.395h-87.738V30z M395.116,303.009   c12.408,11.167,17.602,28.167,13.548,44.386L375.242,482H230.024c-24.84-37.808-41.345-70.554-22.746-110.372   c8.961-19.187,14.693-40.01,14.693-61.023l0.002-55.052c0-8.024,6.527-14.553,14.549-14.553h0.751c8.248,0,14.7,6.57,14.7,14.554   v39.113c0,26.741,7.841,52.635,22.674,74.884l9.846,14.769c4.595,6.894,13.908,8.755,20.801,4.161   c6.893-4.595,8.756-13.908,4.16-20.801l-4.453-6.68h51.972c8.284,0,15-6.716,15-15v-63.82L395.116,303.009z"/>
	<path d="M196.367,160.606c2.929,2.929,6.768,4.394,10.606,4.394s7.678-1.464,10.606-4.394l69.687-69.687   c5.858-5.858,5.858-15.355,0-21.213c-5.857-5.858-15.355-5.858-21.213,0l-59.08,59.08L172.58,94.394   c-5.857-5.858-15.355-5.858-21.213,0c-5.858,5.858-5.858,15.355,0,21.213L196.367,160.606z"/>
</g>















</svg>
