<svg id="Capa_1" enable-background="new 0 0 512 512" height="512" viewBox="0 0 512 512" width="512" xmlns="http://www.w3.org/2000/svg"><g><g><path d="m492.249 432.089h-472.498c-6.782 0-12.279-5.498-12.279-12.279v-100.323c0-6.782 5.498-12.279 12.279-12.279h472.497c6.782 0 12.279 5.498 12.279 12.279v100.323c.001 6.782-5.497 12.279-12.278 12.279z" fill="#d5efc8"/></g><g><path d="m504.523 319.483v100.326c0 6.785-5.49 12.284-12.274 12.284h-20.175c6.775 0 12.274-5.5 12.274-12.284v-100.326c0-6.775-5.5-12.274-12.274-12.274h20.175c6.785 0 12.274 5.5 12.274 12.274z" fill="#c1e9af"/></g><g><circle cx="256" cy="197.618" fill="#ade194" r="117.708"/></g><g><path d="m373.711 197.618c0 65.008-52.703 117.711-117.711 117.711-20.543 0-39.871-5.27-56.679-14.536 12.035 4.165 24.947 6.416 38.387 6.416 65.008 0 117.711-52.703 117.711-117.711 0-44.474-24.668-83.18-61.072-103.195 46.188 15.901 79.364 59.737 79.364 111.315z" fill="#97da7b"/></g><g><g><path d="m239.871 250.88c-4.873 0-9.564-1.891-13.078-5.288l-31.342-30.292c-7.473-7.223-7.676-19.138-.453-26.611 7.223-7.472 19.135-7.679 26.612-.453l17.497 16.91 50.537-54.735c7.05-7.637 18.957-8.112 26.594-1.061 7.636 7.051 8.111 18.958 1.06 26.594l-63.598 68.883c-3.436 3.722-8.228 5.901-13.291 6.046-.18.004-.359.007-.538.007z" fill="#faf7f7"/></g></g><g><g><path d="m317.301 175.949-63.603 68.873c-3.437 3.726-8.229 5.908-13.29 6.048-.179.01-.359.01-.538.01-4.872 0-9.564-1.893-13.081-5.29l-6.247-6.038c.996.159 2.003.239 3.019.239.179 0 .369-.01.558-.01 5.29-.149 10.292-2.431 13.888-6.317l66.442-71.962c4.184-4.533 5.828-10.501 5.011-16.17 2.441.817 4.752 2.152 6.775 4.015 7.642 7.055 8.11 18.96 1.066 26.602z" fill="#ede1dd"/></g></g><g><path d="m242.186 358.005c0-11.069-9.325-20.074-20.787-20.074h-12.886c-.003 0-.005 0-.008 0s-.005 0-.008 0c-4.127 0-7.472 3.345-7.472 7.472v48.491c0 4.127 3.345 7.472 7.472 7.472s7.472-3.345 7.472-7.472v-9.988l13.136 14.925c1.477 1.678 3.539 2.535 5.612 2.535 1.753 0 3.514-.613 4.934-1.863 3.098-2.726 3.399-7.448.672-10.546l-10.935-12.424c7.508-3.03 12.798-10.192 12.798-18.528zm-20.787 5.13c-1.289 0-3.307.007-5.365.017-.009-1.984-.021-8.191-.026-10.277h5.391c3.112 0 5.843 2.397 5.843 5.13s-2.731 5.13-5.843 5.13z"/><path d="m64.763 343.239c-1.328-3.226-4.439-5.308-7.936-5.308-3.491.004-6.602 2.094-7.924 5.326-.023.056-.046.113-.067.17l-18.208 47.808c-1.469 3.857.467 8.174 4.323 9.642 3.858 1.47 8.173-.467 9.642-4.323l2.702-7.094h18.94s2.668 7.07 2.669 7.073c1.462 3.875 5.791 5.802 9.629 4.353 3.861-1.457 5.81-5.768 4.353-9.629l-18.043-47.81c-.025-.07-.052-.14-.08-.208zm-11.775 31.276 3.822-10.034 3.787 10.034z"/><path d="m381.702 393.894c0 4.127 3.345 7.472 7.472 7.472h20.246c4.127 0 7.472-3.345 7.472-7.472s-3.345-7.472-7.472-7.472h-12.774v-9.08h11.281c4.127 0 7.472-3.345 7.472-7.472s-3.345-7.472-7.472-7.472h-11.281v-9.079h12.774c4.127 0 7.472-3.345 7.472-7.472s-3.345-7.472-7.472-7.472h-20.246c-4.127 0-7.472 3.345-7.472 7.472z"/><path d="m356.152 343.137-9.91 29.832-10.419-30.016c-1.353-3.899-5.611-5.961-9.51-4.609-3.898 1.353-5.962 5.611-4.609 9.509l16.597 47.813c1.213 3.416 4.452 5.699 8.072 5.699h.057c3.643-.024 6.879-2.358 8.07-5.859l15.833-47.66c1.301-3.916-.819-8.145-4.736-9.447-3.916-1.3-8.144.821-9.445 4.738z"/><path d="m101.483 337.931c-4.068 0-7.313 3.189-7.458 7.2-.003.091-.014 48.763-.014 48.763 0 4.127 3.345 7.472 7.472 7.472s7.472-3.345 7.472-7.472v-13.63c2.293-.011 4.596-.02 6.03-.02 11.813 0 21.424-9.491 21.424-21.156s-9.611-21.156-21.424-21.156h-13.502zm19.982 21.156c0 3.367-2.967 6.212-6.48 6.212-1.424 0-3.699.009-5.976.019-.011-2.373-.02-4.761-.02-6.232 0-1.259-.005-3.719-.012-6.212h6.008c3.513.001 6.48 2.846 6.48 6.213z"/><path d="m155.067 337.931c-4.092 0-7.471 3.393-7.472 7.472v48.491c0 4.127 3.345 7.472 7.472 7.472s7.472-3.345 7.472-7.472v-13.63c2.293-.011 4.596-.02 6.03-.02 11.813 0 21.424-9.491 21.424-21.156s-9.611-21.156-21.424-21.156c0-.001-13.496-.001-13.502-.001zm19.982 21.156c0 3.367-2.967 6.212-6.48 6.212-1.424 0-3.699.009-5.976.019-.011-2.373-.02-4.761-.02-6.232 0-1.259-.005-3.719-.012-6.212h6.008c3.512.001 6.48 2.846 6.48 6.213z"/><path d="m251.643 369.648c0 17.489 14.229 31.718 31.718 31.718s31.717-14.229 31.717-31.718-14.228-31.717-31.717-31.717-31.718 14.228-31.718 31.717zm48.491 0c0 9.249-7.524 16.773-16.773 16.773s-16.773-7.525-16.773-16.773 7.525-16.773 16.773-16.773 16.773 7.525 16.773 16.773z"/><path d="m435.907 399.197c1.4 1.39 3.292 2.169 5.264 2.169h.028c.415-.001 10.217-.039 14.14-.107 15.367-.269 26.521-13.563 26.521-31.61 0-18.971-10.872-31.717-27.054-31.717h-13.734c-1.984 0-3.887.789-5.288 2.193-1.402 1.404-2.188 3.308-2.184 5.293 0 0 .036 18.65.036 24.178 0 6.742.063 24.325.063 24.325.007 1.981.801 3.88 2.208 5.276zm18.9-46.322c11.236 0 12.11 12.838 12.11 16.773 0 8.194-3.661 16.525-11.838 16.668-1.515.026-4.003.049-6.46.065-.017-5.61-.038-12.954-.038-16.786 0-3.217-.012-10.873-.022-16.72z"/><path d="m492.248 299.736h-82.828c-4.127 0-7.472 3.345-7.472 7.472s3.345 7.472 7.472 7.472h82.829c2.651 0 4.807 2.156 4.807 4.807v100.323c0 2.651-2.156 4.807-4.807 4.807h-472.497c-2.651 0-4.807-2.157-4.807-4.807v-100.323c0-2.651 2.156-4.807 4.807-4.807h191.913c13.789 5.24 28.731 8.118 44.335 8.118s30.547-2.878 44.335-8.118h74.723c4.127 0 7.472-3.345 7.472-7.472s-3.345-7.472-7.472-7.472h-46.732c31.961-22.703 52.854-60.016 52.854-102.117 0-69.024-56.155-125.18-125.18-125.18s-125.18 56.155-125.18 125.18c0 42.102 20.893 79.414 52.854 102.117h-163.922c-10.891 0-19.752 8.86-19.752 19.751v100.323c0 10.891 8.861 19.752 19.752 19.752h472.497c10.891 0 19.752-8.861 19.752-19.752v-100.323c-.001-10.891-8.861-19.751-19.753-19.751zm-346.483-102.118c0-60.784 49.451-110.235 110.235-110.235s110.235 49.451 110.235 110.235-49.451 110.235-110.235 110.235c-60.784.001-110.235-49.451-110.235-110.235z"/><path d="m259.189 249.896 63.598-68.883c9.834-10.651 9.17-27.318-1.481-37.153-5.16-4.764-11.874-7.228-18.883-6.954-7.018.28-13.506 3.276-18.269 8.436l-8.903 9.643c-2.8 3.032-2.611 7.76.421 10.559 3.033 2.799 7.76 2.611 10.559-.421l8.903-9.643c2.056-2.227 4.856-3.52 7.884-3.641 3.044-.12 5.924.946 8.15 3.001 4.597 4.245 4.884 11.438.639 16.035l-63.599 68.884c-2.058 2.229-4.979 3.558-8.003 3.645l-.334.004c-2.958 0-5.758-1.132-7.885-3.188l-31.341-30.291c-4.499-4.349-4.622-11.547-.274-16.046 4.349-4.499 11.547-4.621 16.047-.273l17.497 16.91c1.446 1.398 3.388 2.15 5.405 2.096 2.011-.057 3.913-.923 5.277-2.4l18.335-19.859c2.8-3.032 2.611-7.76-.421-10.559-3.032-2.8-7.76-2.611-10.559.421l-13.15 14.242-12-11.598c-10.424-10.074-27.103-9.789-37.178.634-10.074 10.423-9.79 27.101.633 37.177l31.342 30.292c4.929 4.763 11.417 7.386 18.271 7.386.247 0 .493-.003.75-.01 7.032-.201 13.8-3.28 18.569-8.446z"/></g></g></svg>