<svg id="Capa_1" enable-background="new 0 0 512 512" height="512" viewBox="0 0 512 512" width="512" xmlns="http://www.w3.org/2000/svg"><g><g><circle cx="256" cy="256" fill="#dcf5f8" r="203.389"/></g><g><path d="m459.386 256c0 112.333-91.053 203.386-203.386 203.386-21.58 0-42.379-3.363-61.887-9.589 12.722 2.502 25.864 3.803 39.306 3.803 112.323 0 203.386-91.063 203.386-203.386 0-90.743-59.424-167.603-141.469-193.797 93.505 18.317 164.05 100.703 164.05 199.583z" fill="#a6e7f0"/></g><g><circle cx="256" cy="256" fill="#faf7f7" r="168.453"/></g><g><path d="m424.454 256c0 93.035-75.419 168.454-168.454 168.454-25.824 0-50.286-5.805-72.156-16.195 16.845 5.645 34.872 8.708 53.609 8.708 93.035 0 168.454-75.419 168.454-168.454 0-67.221-39.376-125.244-96.318-152.269 66.761 22.391 114.865 85.458 114.865 159.756z" fill="#ede1dd"/></g><g><path d="m171.362 165.055c-1.877.002-2.976-2.135-1.866-3.648 19.531-26.615 51.038-43.893 86.581-43.893 35.444 0 66.874 17.182 86.417 43.67 1.114 1.51.02 3.65-1.857 3.652z" fill="#a6e7f0"/></g><g><path d="m171.362 346.945c-1.877-.002-2.976 2.135-1.866 3.648 19.531 26.615 51.038 43.893 86.581 43.893 35.444 0 66.874-17.182 86.417-43.67 1.114-1.51.02-3.65-1.857-3.652z" fill="#a6e7f0"/></g><g><path d="m342.499 350.817c-19.548 26.484-50.977 43.67-86.419 43.67-14.103 0-27.565-2.722-39.896-7.667 5.645.921 11.441 1.401 17.356 1.401 34.271 0 64.799-16.065 84.447-41.087l22.651.03c1.881-.001 2.972 2.141 1.861 3.653z" fill="#6bd9e7"/></g><g><path d="m342.499 161.184c-19.548-26.484-50.977-43.67-86.419-43.67-14.103 0-27.565 2.722-39.896 7.667 5.645-.921 11.441-1.401 17.356-1.401 34.271 0 64.799 16.065 84.447 41.087l22.651-.03c1.881 0 2.972-2.142 1.861-3.653z" fill="#6bd9e7"/></g><g><path d="m482.807 259.994c-1.148-2.539-1.148-5.45 0-7.989l20.816-46.036c2.902-6.417-1.791-13.69-8.834-13.69h-477.578c-7.043 0-11.736 7.272-8.834 13.69l20.816 46.036c1.148 2.539 1.148 5.45 0 7.989l-20.816 46.036c-2.902 6.417 1.791 13.69 8.834 13.69h477.578c7.043 0 11.736-7.272 8.834-13.69z" fill="#a2aee6"/></g><g><path d="m503.626 306.026c2.903 6.426-1.792 13.692-8.838 13.692h-23.982c7.046 0 11.741-7.267 8.838-13.692l-20.819-46.032c-1.151-2.542-1.151-5.445 0-7.987l20.819-46.032c2.903-6.426-1.792-13.692-8.838-13.692h23.982c7.046 0 11.741 7.267 8.838 13.692l-20.819 46.032c-1.151 2.542-1.151 5.445 0 7.987z" fill="#8795de"/></g><g><path d="m256.077 110.007c-36.427 0-71.056 17.555-92.634 46.959-2.195 2.992-2.514 6.908-.833 10.221 1.683 3.316 5.034 5.375 8.749 5.375h.013l169.276-.218c3.72-.005 7.072-2.073 8.748-5.398 1.672-3.317 1.342-7.233-.861-10.218-21.583-29.255-56.147-46.721-92.458-46.721zm-73.703 47.528c18.801-20.525 45.639-32.514 73.704-32.514 27.963 0 54.736 11.919 73.529 32.323z"/><path d="m162.61 344.813c-1.681 3.313-1.362 7.229.833 10.221 21.578 29.404 56.207 46.959 92.634 46.959 36.311 0 70.874-17.466 92.458-46.72 2.203-2.986 2.533-6.902.861-10.219-1.676-3.325-5.028-5.393-8.748-5.398l-169.276-.218c-.004 0-.008 0-.013 0-3.714 0-7.066 2.058-8.749 5.375zm166.996 9.843c-18.793 20.405-45.566 32.323-73.529 32.323-28.064 0-54.903-11.989-73.704-32.514z"/><path d="m489.647 256.902c-.259-.573-.259-1.231 0-1.804l20.816-46.036c2.418-5.347 1.961-11.484-1.221-16.414-3.182-4.931-8.585-7.875-14.454-7.875h-40.225c-6.027-16.808-14.213-32.867-24.464-47.83-2.343-3.421-7.015-4.295-10.435-1.95-3.421 2.343-4.293 7.015-1.95 10.435 8.483 12.382 15.443 25.573 20.821 39.345h-21.661c-27.397-61.637-89.19-104.733-160.874-104.733-71.685 0-133.485 43.094-160.88 104.732h-21.58c28.554-72.892 99.569-124.654 182.46-124.654 52.963 0 102.554 20.79 139.68 58.553l.491.603c2.616 3.217 7.345 3.704 10.56 1.087 3.216-2.616 3.703-7.345 1.087-10.56l-.712-.875c-.146-.179-.3-.352-.462-.517-40-40.822-93.5-63.304-150.645-63.304-91.301 0-169.221 58.326-198.498 139.669h-40.29c-5.869 0-11.272 2.944-14.454 7.875-3.182 4.931-3.638 11.068-1.22 16.414l20.816 46.037c.259.572.259 1.229 0 1.802l-20.816 46.035c-2.418 5.347-1.962 11.484 1.22 16.415s8.585 7.875 14.454 7.875h40.293c29.277 81.342 107.195 139.669 198.496 139.669 91.3 0 169.213-58.328 198.491-139.669h40.298c5.869 0 11.272-2.944 14.454-7.875s3.639-11.067 1.221-16.415zm-233.647-161.848c63.187 0 117.981 36.604 144.304 89.719h-288.597c26.323-53.113 81.108-89.719 144.293-89.719zm0 356.828c-82.893 0-153.913-51.761-182.466-124.655h21.579c27.395 61.639 89.201 104.733 160.887 104.733 71.685 0 133.483-43.095 160.878-104.732h21.584c-28.553 72.892-99.57 124.654-182.462 124.654zm240.628-140.67c-.241.374-.801 1.002-1.839 1.002h-317.256c-4.146 0-7.507 3.361-7.507 7.507s3.361 7.507 7.507 7.507h222.758c-26.324 53.112-81.107 89.719-144.291 89.719-63.186 0-117.975-36.605-144.299-89.719h31.049c4.146 0 7.507-3.361 7.507-7.507s-3.361-7.507-7.507-7.507h-125.539c-1.038 0-1.597-.628-1.839-1.002-.241-.374-.583-1.143-.155-2.088l20.815-46.035c2.038-4.505 2.038-9.672 0-14.175l-20.816-46.037c-.427-.945-.086-1.714.155-2.088s.801-1.002 1.839-1.002h477.578c1.038 0 1.597.628 1.839 1.002s.583 1.143.155 2.088l-20.816 46.036c-2.036 4.504-2.037 9.669 0 14.175l20.816 46.036c.429.944.087 1.714-.154 2.088z"/><path d="m85.638 228.118c-.026-.069-.054-.139-.082-.207-1.345-3.269-4.497-5.378-8.041-5.378-3.537.004-6.689 2.122-8.027 5.397-.023.056-.045.113-.067.17 0 0-19.438 51.037-19.497 51.191-1.821 4.78 1.947 10.181 7.014 10.181 3.025 0 5.876-1.842 7.017-4.837l3.014-7.914h20.962l2.979 7.893c1.463 3.878 5.793 5.838 9.674 4.373 3.879-1.464 5.837-5.795 4.373-9.674zm-12.951 33.587 4.811-12.632 4.767 12.632z"/><path d="m455.06 238.02c4.146 0 7.507-3.361 7.507-7.507s-3.361-7.507-7.507-7.507h-21.678c-4.146 0-7.507 3.361-7.507 7.507v51.448c0 4.146 3.361 7.507 7.507 7.507h21.678c4.146 0 7.507-3.361 7.507-7.507s-3.361-7.507-7.507-7.507h-14.171v-10.71h12.573c4.146 0 7.507-3.361 7.507-7.507s-3.361-7.507-7.507-7.507h-12.573v-10.71z"/><path d="m407.984 223.01c-3.938-1.307-8.184.823-9.491 4.758l-11.07 33.324-11.633-33.514c-1.36-3.917-5.637-5.988-9.554-4.63-3.917 1.36-5.989 5.637-4.63 9.554l17.77 51.194c1.229 3.46 4.51 5.773 8.178 5.773h.06c3.691-.025 6.969-2.39 8.174-5.935l16.953-51.033c1.307-3.935-.823-8.184-4.757-9.491z"/><path d="m275.498 243.533c0-11.58-9.763-21.001-21.764-21.001h-13.798c-.003 0-.006 0-.008 0-.003 0-.005 0-.008 0-4.146 0-7.507 3.361-7.507 7.507v51.922c0 4.146 3.361 7.507 7.507 7.507s7.507-3.361 7.507-7.507v-12.004l14.93 16.963c1.484 1.686 3.555 2.547 5.638 2.547 1.761 0 3.531-.616 4.957-1.872 3.112-2.739 3.415-7.482.675-10.595l-12.177-13.836c8.202-3.01 14.048-10.672 14.048-19.631zm-21.765 5.987c-1.482 0-3.867.009-6.237.02-.011-2.295-.02-4.585-.02-6.007 0-1.218-.005-3.577-.012-5.987h6.268c3.659 0 6.751 2.742 6.751 5.987.001 3.245-3.091 5.987-6.75 5.987z"/><path d="m139.789 222.532h-14.458c-3.839 0-7.349 3.313-7.493 7.232-.003.092-.014 52.197-.014 52.197 0 4.146 3.361 7.507 7.507 7.507s7.507-3.361 7.507-7.507v-15.087c2.614-.013 5.312-.023 6.951-.023 12.377 0 22.446-9.941 22.446-22.159s-10.069-22.16-22.446-22.16zm0 29.305c-1.627 0-4.292.011-6.891.023-.013-2.7-.024-5.491-.024-7.169 0-1.431-.006-4.313-.014-7.146h6.929c4.029 0 7.433 3.273 7.433 7.146s-3.404 7.146-7.433 7.146z"/><path d="m197.165 222.532h-14.458c-3.487 0-6.162 2.14-7.027 5.467-.699 2.687-.48 5.535-.48 8.281v15.986 29.695c0 4.146 3.361 7.507 7.507 7.507s7.507-3.361 7.507-7.507v-15.087c2.614-.013 5.312-.023 6.951-.023 12.377 0 22.446-9.941 22.446-22.159s-10.069-22.16-22.446-22.16zm0 29.305c-1.627 0-4.292.011-6.891.023-.013-2.7-.024-5.491-.024-7.169 0-1.431-.006-4.313-.014-7.146h6.929c4.029 0 7.433 3.273 7.433 7.146s-3.404 7.146-7.433 7.146z"/><path d="m320.08 222.532c-18.454 0-33.468 15.014-33.468 33.468s15.014 33.468 33.468 33.468 33.468-15.014 33.468-33.468-15.014-33.468-33.468-33.468zm0 51.922c-10.176 0-18.454-8.279-18.454-18.454 0-10.176 8.279-18.454 18.454-18.454 10.176 0 18.454 8.279 18.454 18.454 0 10.176-8.278 18.454-18.454 18.454z"/></g></g></svg>