<svg id="Layer_1" enable-background="new 0 0 512 512" viewBox="0 0 512 512" xmlns="http://www.w3.org/2000/svg"><g><g><g><path d="m139.904 138.667h232.192c4.48 0 8.491-2.795 10.027-7.019s.277-8.939-3.157-11.819c-34.646-29.12-78.315-45.162-122.966-45.162s-88.32 16.043-122.965 45.163c-3.435 2.88-4.693 7.595-3.157 11.819 1.535 4.223 5.546 7.018 10.026 7.018z"/><path d="m372.096 373.333h-232.192c-4.48 0-8.491 2.795-10.027 7.019s-.277 8.939 3.157 11.819c34.645 29.12 78.315 45.163 122.965 45.163s88.32-16.043 122.965-45.163c3.435-2.88 4.693-7.595 3.157-11.819-1.534-4.224-5.545-7.019-10.025-7.019z"/><path d="m437.333 160h-362.666c-41.174 0-74.667 33.493-74.667 74.667v42.667c0 41.173 33.493 74.666 74.667 74.666h362.667c41.173 0 74.666-33.493 74.666-74.667v-42.667c0-41.173-33.493-74.666-74.667-74.666zm-310.016 57.088-32 85.333c-1.557 4.16-5.547 6.912-9.984 6.912s-8.427-2.752-9.984-6.912l-32-85.333c-2.069-5.525.725-11.669 6.229-13.739 5.504-2.027 11.669.725 13.739 6.229l22.016 58.709 22.016-58.709c2.069-5.525 8.213-8.277 13.739-6.229 5.504 2.07 8.299 8.214 6.229 13.739zm86.016 60.245c0 17.643-14.357 32-32 32s-32-14.357-32-32v-42.667c0-17.643 14.357-32 32-32s32 14.357 32 32zm85.334-53.333h-21.333v74.667c0 5.888-4.779 10.667-10.667 10.667s-10.667-4.779-10.667-10.667v-74.667h-21.333c-5.888 0-10.667-4.779-10.667-10.667s4.779-10.667 10.667-10.667h64c5.888 0 10.667 4.779 10.667 10.667s-4.779 10.667-10.667 10.667zm53.333 21.333c5.888 0 10.667 4.779 10.667 10.667s-4.779 10.667-10.667 10.667h-10.667v21.333h32c5.888 0 10.667 4.779 10.667 10.667s-4.779 10.667-10.667 10.667h-42.667c-5.888 0-10.667-4.779-10.667-10.667v-85.333c0-5.888 4.779-10.667 10.667-10.667h42.667c5.888 0 10.667 4.779 10.667 10.667s-4.779 10.666-10.667 10.666h-32v21.333zm117.333 32c0 17.643-14.357 32-32 32h-21.333c-5.888 0-10.667-4.779-10.667-10.667v-85.333c0-5.888 4.779-10.667 10.667-10.667h21.333c17.643 0 32 14.357 32 32z"/><path d="m181.333 224c-5.888 0-10.667 4.779-10.667 10.667v42.667c0 5.888 4.779 10.667 10.667 10.667s10.667-4.78 10.667-10.668v-42.667c0-5.887-4.779-10.666-10.667-10.666z"/><path d="m437.333 224h-10.667v64h10.667c5.888 0 10.667-4.779 10.667-10.667v-42.667c0-5.887-4.779-10.666-10.667-10.666z"/></g></g></g><g/><g/><g/><g/><g/><g/><g/><g/><g/><g/><g/><g/><g/><g/><g/></svg>