<svg id="Capa_1" enable-background="new 0 0 512 512" height="512" viewBox="0 0 512 512" width="512" xmlns="http://www.w3.org/2000/svg"><g><g><g><circle cx="256" cy="256" fill="#fd8087" r="203.389"/></g><g><path d="m459.385 256c0 112.332-91.053 203.385-203.385 203.385-21.58 0-42.379-3.363-61.886-9.589 12.722 2.502 25.864 3.803 39.306 3.803 112.322 0 203.385-91.063 203.385-203.385 0-90.743-59.424-167.603-141.469-193.797 93.505 18.318 164.049 100.703 164.049 199.583z" fill="#fe646f"/></g><g><circle cx="256" cy="256" fill="#faf7f7" r="168.453"/></g><g><path d="m424.453 256c0 93.035-75.419 168.454-168.454 168.454-25.824 0-50.286-5.805-72.156-16.195 16.845 5.645 34.872 8.708 53.609 8.708 93.035 0 168.454-75.419 168.454-168.454 0-67.221-39.376-125.244-96.318-152.269 66.762 22.391 114.865 85.458 114.865 159.756z" fill="#ede1dd"/></g><g><path d="m171.362 165.056c-1.877.002-2.976-2.135-1.866-3.648 19.531-26.615 51.038-43.893 86.581-43.893 35.444 0 66.874 17.182 86.417 43.67 1.114 1.51.02 3.65-1.857 3.652z" fill="#fd8087"/></g><g><path d="m171.362 346.944c-1.877-.002-2.976 2.135-1.866 3.648 19.531 26.615 51.038 43.893 86.581 43.893 35.444 0 66.874-17.182 86.417-43.67 1.114-1.51.02-3.65-1.857-3.652z" fill="#fd8087"/></g><g><path d="m342.499 350.816c-19.548 26.484-50.976 43.67-86.419 43.67-14.103 0-27.565-2.722-39.896-7.667 5.645.921 11.44 1.401 17.356 1.401 34.271 0 64.799-16.065 84.447-41.087l22.651.03c1.881 0 2.972 2.142 1.861 3.653z" fill="#fe646f"/></g><g><path d="m342.499 161.184c-19.548-26.484-50.976-43.67-86.419-43.67-14.103 0-27.565 2.722-39.896 7.667 5.645-.921 11.44-1.401 17.356-1.401 34.271 0 64.799 16.065 84.447 41.087l22.651-.03c1.881 0 2.972-2.141 1.861-3.653z" fill="#fe646f"/></g><g><path d="m482.806 259.994c-1.148-2.539-1.148-5.45 0-7.989l20.816-46.036c2.902-6.417-1.791-13.69-8.834-13.69h-477.577c-7.043 0-11.736 7.272-8.834 13.69l20.816 46.036c1.148 2.539 1.148 5.45 0 7.989l-20.816 46.036c-2.902 6.417 1.791 13.69 8.834 13.69h477.578c7.043 0 11.736-7.272 8.834-13.69z" fill="#fd4755"/></g><g><path d="m503.626 306.026c2.903 6.426-1.792 13.692-8.838 13.692h-23.982c7.046 0 11.741-7.267 8.838-13.692l-20.819-46.032c-1.151-2.542-1.151-5.445 0-7.987l20.819-46.032c2.903-6.426-1.792-13.692-8.838-13.692h23.982c7.046 0 11.741 7.267 8.838 13.692l-20.819 46.032c-1.151 2.542-1.151 5.445 0 7.987z" fill="#e41f2d"/></g></g><g><path d="m256.078 110.007c-36.426 0-71.056 17.555-92.634 46.959-2.194 2.991-2.515 6.908-.835 10.22 1.682 3.316 5.035 5.376 8.753 5.376h.011l34.569-.048c4.145-.006 7.502-3.371 7.496-7.518-.006-4.142-3.365-7.496-7.507-7.496-.003 0-.007 0-.011 0l-23.545.032c18.802-20.525 45.639-32.512 73.703-32.512 27.963 0 54.734 11.917 73.528 32.323l-88.08.117c-4.146.006-7.503 3.371-7.497 7.517.006 4.142 3.365 7.497 7.507 7.497h.01l99.101-.132c3.721-.004 7.073-2.072 8.749-5.398 1.673-3.318 1.343-7.234-.86-10.218-21.585-29.252-56.149-46.719-92.458-46.719z"/><path d="m340.648 339.656-169.276-.219c-.005 0-.008 0-.013 0-3.715 0-7.068 2.06-8.75 5.376-1.68 3.313-1.36 7.229.835 10.22 21.578 29.404 56.208 46.959 92.634 46.959 36.31 0 70.873-17.466 92.456-46.718 2.205-2.986 2.535-6.902.862-10.22-1.677-3.325-5.029-5.394-8.748-5.398zm-84.57 47.323c-28.064 0-54.902-11.988-73.704-32.513l147.232.19c-18.794 20.405-45.565 32.323-73.528 32.323z"/><path d="m510.463 302.937-20.817-46.036c-.259-.574-.259-1.231 0-1.803l20.817-46.035c2.418-5.347 1.962-11.483-1.221-16.414-3.182-4.931-8.585-7.875-14.454-7.875h-40.298c-29.278-81.342-107.19-139.669-198.49-139.669-91.301 0-169.222 58.326-198.499 139.668h-40.29c-5.869 0-11.272 2.944-14.455 7.875-3.182 4.93-3.638 11.067-1.22 16.414l20.816 46.036c.259.573.26 1.229 0 1.802l-20.815 46.037c-2.418 5.348-1.962 11.484 1.22 16.414 3.183 4.931 8.586 7.875 14.455 7.875h40.298c29.278 81.342 107.19 139.669 198.49 139.669s169.214-58.327 198.491-139.668h40.298c5.869 0 11.272-2.944 14.455-7.875 3.181-4.931 3.637-11.067 1.219-16.415zm-254.463-242.819c82.893 0 153.914 51.761 182.467 124.655h-21.594c-27.396-61.637-89.19-104.732-160.873-104.732-71.684 0-133.479 43.096-160.875 104.732h-21.583c28.554-72.892 99.566-124.655 182.458-124.655zm144.298 124.655h-288.595c26.323-53.113 81.111-89.719 144.297-89.719s117.975 36.605 144.298 89.719zm-144.298 267.109c-82.891 0-153.905-51.762-182.458-124.655h21.584c27.396 61.637 89.19 104.732 160.874 104.732 45.674 0 88.963-17.421 121.912-49.076l.93-.9c2.978-2.884 3.054-7.637.17-10.615-2.885-2.976-7.638-3.054-10.615-.17l-.908.88c-30.117 28.934-69.711 44.868-111.488 44.868-63.187 0-117.98-36.604-144.303-89.719h288.643c-3.214 6.515-6.87 12.841-10.99 18.923-2.325 3.432-1.428 8.1 2.005 10.424 3.432 2.326 8.101 1.429 10.425-2.005 5.895-8.702 10.935-17.855 15.135-27.342h21.547c-28.555 72.893-99.571 124.655-182.463 124.655zm240.628-140.671c-.241.374-.802 1.002-1.84 1.002h-477.577c-1.038 0-1.597-.628-1.84-1.002-.241-.374-.583-1.143-.154-2.089l20.815-46.034c2.038-4.504 2.038-9.672.001-14.176l-20.816-46.035c-.428-.946-.087-1.714.154-2.089.242-.374.802-1.002 1.84-1.002h477.577c1.037 0 1.597.628 1.839 1.002.241.374.583 1.144.155 2.089l-20.818 46.036c-2.035 4.504-2.035 9.67.001 14.173l20.817 46.036c.429.947.088 1.715-.154 2.089z"/><path d="m377.764 272.831c-3.176-2.666-7.912-2.251-10.576.925-.562.67-1.166 1.293-1.796 1.854-3.238 2.884-7.369 4.347-12.276 4.347-13.209 0-23.956-10.747-23.956-23.956s10.746-23.956 23.956-23.956c4.801 0 9.431 1.413 13.388 4.088 3.436 2.32 8.101 1.416 10.424-2.017 2.32-3.436 1.417-8.102-2.018-10.424-6.449-4.357-13.985-6.66-21.794-6.66-21.487 0-38.969 17.482-38.969 38.97s17.482 38.97 38.969 38.97c8.578 0 16.276-2.818 22.261-8.149 1.169-1.041 2.283-2.19 3.311-3.414 2.666-3.178 2.252-7.913-.924-10.578z"/><path d="m438.731 217.03h-34.751c-4.146 0-7.507 3.361-7.507 7.507s3.36 7.507 7.507 7.507h9.799v55.42c0 4.146 3.361 7.507 7.507 7.507s7.507-3.36 7.507-7.507v-55.42h9.939c4.146 0 7.507-3.36 7.507-7.507s-3.362-7.507-7.508-7.507z"/><path d="m169.903 232.618c4.146 0 7.507-3.36 7.507-7.507s-3.36-7.507-7.507-7.507h-26.273c-4.146 0-7.507 3.36-7.507 7.507v62.352c0 4.146 3.361 7.507 7.507 7.507h26.273c4.146 0 7.507-3.36 7.507-7.507s-3.36-7.507-7.507-7.507h-18.766v-16.162h16.829c4.146 0 7.507-3.36 7.507-7.507 0-4.146-3.36-7.507-7.507-7.507h-16.829v-16.162z"/><path d="m290.857 232.618c4.146 0 7.507-3.36 7.507-7.507s-3.36-7.507-7.507-7.507h-26.273c-4.146 0-7.507 3.36-7.507 7.507v62.352c0 4.146 3.36 7.507 7.507 7.507h26.273c4.146 0 7.507-3.36 7.507-7.507s-3.36-7.507-7.507-7.507h-18.766v-16.162h16.829c4.146 0 7.507-3.36 7.507-7.507 0-4.146-3.36-7.507-7.507-7.507h-16.829v-16.162z"/><path d="m114.797 240.89c0-13.157-11.119-23.861-24.785-23.861h-16.723c-.004 0-.007 0-.01 0s-.007 0-.01 0c-4.146 0-7.507 3.361-7.507 7.507v62.926c0 4.146 3.36 7.507 7.507 7.507s7.507-3.36 7.507-7.507v-18.764l20.879 23.724c1.484 1.686 3.556 2.547 5.638 2.547 1.761 0 3.531-.617 4.957-1.872 3.112-2.739 3.414-7.482.675-10.595l-16.372-18.602c10.502-2.769 18.244-12.033 18.244-23.01zm-24.786 8.847c-2.129 0-5.792.015-9.141.031-.017-3.272-.041-14.298-.051-17.725h9.192c5.297 0 9.772 4.052 9.772 8.847s-4.475 8.847-9.772 8.847z"/><path d="m228.435 217.065c-4.143 0-7.5 3.357-7.5 7.5v50.247c0 1.952-.999 3.721-2.607 4.613-3.06 1.7-6.632-1.664-6.719-1.744-.156-.166-.19-.189-.361-.34l-3.294-2.903c-3.108-2.739-7.848-2.439-10.585.667-2.739 3.107-2.44 7.847.667 10.585l3.132 2.761c3.038 2.967 8.711 6.515 15.312 6.515 2.911 0 6.004-.69 9.129-2.425 6.37-3.537 10.327-10.33 10.327-17.729v-50.247c-.001-4.142-3.359-7.5-7.501-7.5z"/></g></g></svg>