<svg id="Capa_1" enable-background="new 0 0 512 512" height="512" viewBox="0 0 512 512" width="512" xmlns="http://www.w3.org/2000/svg"><g><path d="m492.249 432.089h-472.498c-6.782 0-12.279-5.498-12.279-12.279v-100.323c0-6.782 5.498-12.279 12.279-12.279h472.497c6.782 0 12.279 5.498 12.279 12.279v100.323c.001 6.781-5.497 12.279-12.278 12.279z" fill="#fd4755"/><g><path d="m504.523 319.483v100.326c0 6.785-5.49 12.284-12.274 12.284h-20.175c6.775 0 12.274-5.5 12.274-12.284v-100.326c0-6.775-5.5-12.274-12.274-12.274h20.175c6.785 0 12.274 5.499 12.274 12.274z" fill="#e41f2d"/></g><g><circle cx="256" cy="197.618" fill="#fd4755" r="117.708"/></g><g><path d="m373.711 197.617c0 65.008-52.703 117.711-117.711 117.711-20.543 0-39.871-5.27-56.679-14.536 12.035 4.165 24.947 6.416 38.387 6.416 65.008 0 117.711-52.703 117.711-117.711 0-44.474-24.668-83.18-61.072-103.195 46.188 15.901 79.364 59.738 79.364 111.315z" fill="#e41f2d"/></g><g><path d="m281.886 197.618 27.093-27.093c7.149-7.148 7.149-18.738 0-25.886-7.148-7.149-18.738-7.149-25.886 0l-27.093 27.093-27.093-27.093c-7.148-7.149-18.738-7.149-25.886 0-7.149 7.148-7.149 18.738 0 25.886l27.093 27.093-27.093 27.093c-7.149 7.148-7.149 18.738 0 25.886 3.574 3.575 8.259 5.361 12.943 5.361 4.685 0 9.369-1.787 12.943-5.361l27.093-27.092 27.093 27.093c3.574 3.575 8.259 5.361 12.943 5.361s9.369-1.787 12.943-5.361c7.149-7.148 7.149-18.738 0-25.886z" fill="#faf7f7"/></g><g><path d="m308.982 224.706c7.143 7.154 7.143 18.74 0 25.894-3.577 3.577-8.259 5.36-12.942 5.36-4.653 0-9.285-1.753-12.852-5.26.04-.03.07-.06.11-.099 7.143-7.154 7.143-18.74 0-25.894l-17.791-17.784c-5.14-5.138-5.14-13.471 0-18.609l17.791-17.784c7.176-7.186 7.143-18.848-.1-25.992 7.163-7.044 18.67-7.004 25.784.099 7.143 7.153 7.143 18.74 0 25.893l-27.099 27.089z" fill="#ede1dd"/></g><g><path d="m167.563 343.381v42.662c0 1.247-.625 2.368-1.63 2.927-2.18 1.209-4.737-1.678-6.28-2.827-3.321-2.474-8.021-1.787-10.495 1.534-4.682 6.286 2.21 12.002 7.412 14.567 2.592 1.278 5.45 2.045 8.35 2.045 2.642 0 5.451-.627 8.293-2.205 5.768-3.202 9.35-9.349 9.35-16.041v-42.662c0-4.143-3.358-7.5-7.5-7.5s-7.5 3.357-7.5 7.5z"/><path d="m410.591 396.759c0-4.143-3.358-7.5-7.5-7.5h-14.786v-11.445h13.143c4.142 0 7.5-3.357 7.5-7.5s-3.358-7.5-7.5-7.5h-13.143v-11.445h14.786c4.142 0 7.5-3.357 7.5-7.5s-3.358-7.5-7.5-7.5h-22.286c-4.142 0-7.5 3.357-7.5 7.5v52.891c0 4.143 3.358 7.5 7.5 7.5h22.286c4.142-.001 7.5-3.359 7.5-7.501z"/><path d="m425.449 395.918c0 .472.049.932.132 1.379.13 1.802.899 3.503 2.189 4.785 1.405 1.395 3.305 2.177 5.284 2.177h.028c.444-.002 10.911-.042 15.097-.115 16.142-.281 27.858-14.279 27.858-33.284 0-19.978-11.42-33.399-28.418-33.399h-14.671c-1.992 0-3.901.792-5.308 2.202-1.407 1.409-2.196 3.32-2.192 5.312v.038.002 50.903zm22.171-43.458c12.45 0 13.418 14.083 13.418 18.399 0 8.988-4.057 18.129-13.12 18.286-1.719.03-4.609.055-7.389.073-.019-6.048-.042-14.21-.042-18.416 0-3.526-.013-12.042-.024-18.343h7.157z"/><path d="m125.434 351.368c4.142 0 7.5-3.357 7.5-7.5s-3.358-7.5-7.5-7.5h-22.286c-4.142 0-7.5 3.357-7.5 7.5v52.891c0 4.143 3.358 7.5 7.5 7.5h22.286c4.142 0 7.5-3.357 7.5-7.5s-3.358-7.5-7.5-7.5h-14.786v-11.445h13.143c4.142 0 7.5-3.357 7.5-7.5s-3.358-7.5-7.5-7.5h-13.143v-11.445h14.786z"/><path d="m228.035 351.368c4.142 0 7.5-3.357 7.5-7.5s-3.358-7.5-7.5-7.5h-22.286c-4.142 0-7.5 3.357-7.5 7.5v52.891c0 4.143 3.358 7.5 7.5 7.5h22.286c4.142 0 7.5-3.357 7.5-7.5s-3.358-7.5-7.5-7.5h-14.786v-11.445h13.143c4.142 0 7.5-3.357 7.5-7.5s-3.358-7.5-7.5-7.5h-13.143v-11.445h14.786z"/><path d="m280.847 350.881c3.846 0 7.554 1.132 10.724 3.273 3.432 2.317 8.094 1.417 10.414-2.017 2.319-3.432 1.416-8.094-2.016-10.413-5.659-3.823-12.271-5.844-19.121-5.844-18.852 0-34.189 15.337-34.189 34.189s15.337 34.188 34.189 34.188c7.558 0 14.348-2.489 19.64-7.202 1.038-.926 2.021-1.939 2.922-3.014 2.661-3.175 2.244-7.905-.93-10.566-3.174-2.662-7.905-2.244-10.566.93-.437.521-.911 1.012-1.406 1.453-2.533 2.256-5.784 3.399-9.66 3.399-10.581 0-19.189-8.608-19.189-19.188-.001-10.58 8.607-19.188 19.188-19.188z"/><path d="m338.672 404.259c4.142 0 7.5-3.357 7.5-7.5v-45.878h7.299c4.142 0 7.5-3.357 7.5-7.5s-3.358-7.5-7.5-7.5h-29.479c-4.142 0-7.5 3.357-7.5 7.5s3.358 7.5 7.5 7.5h7.18v45.878c0 4.142 3.358 7.5 7.5 7.5z"/><path d="m79.822 357.253c0-11.784-9.94-21.372-22.158-21.372h-14.184c-.003 0-.006 0-.009 0s-.006 0-.009 0c-4.142 0-7.5 3.357-7.5 7.5v53.378c0 4.143 3.358 7.5 7.5 7.5s7.5-3.357 7.5-7.5v-12.916l15.729 17.871c1.482 1.685 3.552 2.545 5.633 2.545 1.76 0 3.527-.616 4.952-1.87 3.109-2.736 3.412-7.476.675-10.585l-12.727-14.46c8.507-2.988 14.598-10.866 14.598-20.091zm-22.158 6.373c-1.569 0-4.121.01-6.627.021-.012-2.432-.027-10.214-.034-12.767h6.662c3.88 0 7.158 2.918 7.158 6.372s-3.279 6.374-7.159 6.374z"/><path d="m492.248 299.735h-163.923c31.961-22.703 52.854-60.016 52.854-102.117 0-69.024-56.155-125.18-125.18-125.18-30.562 0-59.993 11.135-82.869 31.356-3.092 2.733-3.383 7.455-.65 10.547 2.733 3.091 7.455 3.384 10.547.65 20.144-17.803 46.059-27.608 72.973-27.608 60.784 0 110.235 49.451 110.235 110.236 0 60.784-49.451 110.235-110.235 110.235s-110.235-49.451-110.235-110.235c0-20.57 5.7-40.632 16.484-58.018 2.175-3.507 1.096-8.113-2.411-10.288-3.507-2.177-8.113-1.096-10.288 2.411-12.252 19.753-18.729 42.54-18.729 65.895 0 42.101 20.893 79.414 52.854 102.117h-163.923c-10.891-.001-19.752 8.86-19.752 19.751v100.323c0 10.891 8.861 19.751 19.752 19.751h342.884c4.127 0 7.472-3.345 7.472-7.472s-3.345-7.472-7.472-7.472h-342.884c-2.651 0-4.807-2.157-4.807-4.807v-100.323c0-2.65 2.156-4.807 4.807-4.807h191.913c13.789 5.24 28.731 8.118 44.335 8.118s30.546-2.878 44.335-8.118h191.913c2.651 0 4.807 2.157 4.807 4.807v100.323c0 2.65-2.156 4.807-4.807 4.807h-94.324c-4.127 0-7.472 3.345-7.472 7.472s3.345 7.472 7.472 7.472h94.324c10.891 0 19.752-8.86 19.752-19.751v-100.323c0-10.891-8.861-19.752-19.752-19.752z"/><path d="m190.187 237.654c0 6.885 2.681 13.358 7.55 18.226 4.869 4.87 11.342 7.551 18.227 7.551s13.358-2.681 18.226-7.55l21.81-21.809 21.809 21.808c4.869 4.87 11.341 7.551 18.227 7.551s13.359-2.681 18.227-7.55c4.87-4.869 7.551-11.342 7.551-18.227s-2.681-13.358-7.55-18.227l-21.809-21.809 21.809-21.808c10.05-10.051 10.05-26.405 0-36.455-4.869-4.868-11.342-7.549-18.227-7.549s-13.358 2.681-18.226 7.549l-21.811 21.81-21.809-21.809c-4.869-4.869-11.341-7.55-18.227-7.55s-13.358 2.681-18.227 7.549c-10.05 10.05-10.05 26.404 0 36.455l21.809 21.808-21.809 21.809c-4.869 4.869-7.55 11.342-7.55 18.227zm18.118-7.659c.17-.17 27.092-27.093 27.092-27.093 1.401-1.402 2.189-3.302 2.189-5.284s-.787-3.882-2.189-5.284l-27.093-27.092c-2.046-2.046-3.173-4.766-3.173-7.66.006-6.597 4.363-10.832 10.833-10.832 2.893 0 5.613 1.127 7.659 3.173l27.093 27.093c1.401 1.401 3.302 2.188 5.284 2.188s3.883-.787 5.284-2.188l27.093-27.094c10.369-10.367 25.363 5.276 15.319 15.32-.012.012-27.093 27.092-27.093 27.092-1.401 1.402-2.189 3.302-2.189 5.284s.787 3.882 2.189 5.284l27.093 27.093c2.046 2.046 3.173 4.765 3.173 7.659 0 5.783-5.038 10.833-10.834 10.833-2.893 0-5.613-1.127-7.659-3.174l-27.093-27.092c-1.459-1.458-3.371-2.188-5.284-2.188s-3.825.73-5.284 2.188l-27.093 27.093c-2.046 2.046-4.766 3.173-7.659 3.173-9.306 0-14.313-11.837-7.658-18.492z"/></g></g></svg>