<?xml version="1.0" ?><svg viewBox="0 0 60 60" xmlns="http://www.w3.org/2000/svg"><title/><g data-name="Layer 1" id="Layer_1"><path d="M30,38A18,18,0,1,0,12,20,18.02062,18.02062,0,0,0,30,38ZM16.42139,12.51953a15.61615,15.61615,0,0,1,9.30127-7.4209.99962.99962,0,1,1,.55078,1.92188,13.60144,13.60144,0,0,0-8.10107,6.46582,1.00008,1.00008,0,0,1-1.751-.9668Zm-.16064,12.23535a1.00161,1.00161,0,0,1-1.22607-.70508A15.53,15.53,0,0,1,14.5,20a15.69657,15.69657,0,0,1,.146-2.13672,1.00011,1.00011,0,0,1,1.98145.27344,13.63506,13.63506,0,0,0,.33789,5.3916A1.00056,1.00056,0,0,1,16.26074,24.75488Z"/><path d="M30,46a99.64477,99.64477,0,0,0,12.499-.78125,10.74625,10.74625,0,0,1-.72491-9.08783,19.84961,19.84961,0,0,1-23.54822,0,10.74625,10.74625,0,0,1-.72491,9.08783A99.64477,99.64477,0,0,0,30,46Z"/><path d="M30,52c-.69073,0-13.89142-.03876-19-2.63763V54.5897a.96272.96272,0,0,0,.42611.821C13.12256,56.48662,19.58353,58,30,58c10.44541,0,16.9133-1.5218,18.593-2.63116a.96489.96489,0,0,0,.414-.81421l-.00476-5.19331C43.8952,51.9613,30.69086,52,30,52Z"/><path d="M30,50c11.83643,0,18.56543-1.9541,19.00732-3.04785-.10052-.16193-1.07092-.9043-4.22229-1.61932.03711.07428.07153.144.1095.21991a.99962.99962,0,0,1-.72559,1.43262A93.6753,93.6753,0,0,1,30,48a93.6753,93.6753,0,0,1-14.16895-1.01465.99962.99962,0,0,1-.72559-1.43262c.038-.07593.07245-.14569.10956-.22-3.10413.7049-4.09,1.44208-4.215,1.70227v.02209C11.47736,48.05786,18.19824,50,30,50Z"/></g></svg>