<?xml version="1.0" ?><svg viewBox="0 0 60 60" xmlns="http://www.w3.org/2000/svg"><title/><g id="text"><text font-family="MyriadPro-Regular, Myriad Pro" font-size="9" transform="translate(6.72705 -49.60986)"><tspan letter-spacing="-0.00499em"/><tspan x="4.74316" y="0"/><tspan letter-spacing="-0.00298em" x="13.38281" y="10.7998"/><tspan letter-spacing="-0.00602em" x="17.79297" y="10.7998"/><tspan x="20.71777" y="10.7998"/></text></g><g data-name="Layer 1" id="Layer_1"><path d="M36.90308,36.02a.25026.25026,0,0,1,.19385,0c.0332.00317.06671-.00641.09937,0l3.57947.71588a3.97359,3.97359,0,0,0-7.55151,0L36.80371,36.02C36.83636,36.01361,36.86987,36.02319,36.90308,36.02Z"/><path d="M38,39.00049a1,1,0,0,1-2,0V38.22l-2.91876.58392a4.00035,4.00035,0,0,0,7.83752,0L38,38.22Z"/><path d="M22.90308,36.02A.94254.94254,0,0,1,23,36.00049a.94254.94254,0,0,1,.09692.01953c.0332.00317.06671-.00641.09937,0l3.57947.71588a3.97359,3.97359,0,0,0-7.55151,0L22.80371,36.02C22.83636,36.01361,22.86987,36.02319,22.90308,36.02Z"/><path d="M53.749,30.4624a3.85236,3.85236,0,0,0-1.87891-.46191H48.06335a5.0034,5.0034,0,0,1-2.48229-.65918l-4.92383-2.81348a4.00272,4.00272,0,0,0-1.98583-.52734H34.23047a2.8637,2.8637,0,0,1-.694-.08537L30,25.03174l-3.53418.88281a2.88282,2.88282,0,0,1-.69864.08594H21.32895a4.004,4.004,0,0,0-1.98617.52734L14.418,29.34131a5.005,5.005,0,0,1-2.48272.65918H8.12988A3.85236,3.85236,0,0,0,6.251,30.4624a7.96371,7.96371,0,0,0-3.97012,8.1453,1.00633,1.00633,0,0,0,1.60106.73145l1.51848-1.13847a.99906.99906,0,0,1,1.49414.35254c1.29224,2.58447,3.45691,5.60272,6.7002,6.29767-.47839-1.17035-.915-2.38989-1.29395-3.66a4.00092,4.00092,0,0,1,.04785-2.39648l.11719-.35156a1.9987,1.9987,0,0,0-.48284-2.04534L9.91113,34.32568a.97105.97105,0,0,0-.77069-.29372,2.54424,2.54424,0,0,0-2.24591,1.41579,1.00012,1.00012,0,0,1-1.78906-.89453A4.49057,4.49057,0,0,1,8.90337,32.045a2.99557,2.99557,0,0,1,2.42183.86661l2.06986,2.06888a4.00115,4.00115,0,0,1,.96725,4.09518l-.11719.35156a1.99561,1.99561,0,0,0-.02832,1.19141c2.67676,8.97266,8.34766,15.54688,12.32422,17.17773a2.9016,2.9016,0,0,0,1.10547.2041h4.707a2.90666,2.90666,0,0,0,1.10645-.2041c3.97559-1.63184,9.64648-8.20605,12.32324-17.17773a1.99561,1.99561,0,0,0-.02832-1.19141l-.11719-.35156a3.9999,3.9999,0,0,1,.96628-4.09323l2.07083-2.07083a2.998,2.998,0,0,1,2.47168-.86133,4.47766,4.47766,0,0,1,3.748,2.50293,1.00012,1.00012,0,0,1-1.78906.89453,2.52327,2.52327,0,0,0-2.18164-1.40918,1.00465,1.00465,0,0,0-.835.28711L48.017,36.39753a1.9987,1.9987,0,0,0-.48284,2.04534l.11719.35156a4.00092,4.00092,0,0,1,.04785,2.39648c-.37891,1.27008-.81567,2.48962-1.29407,3.66,3.24335-.69495,5.40808-3.7132,6.70032-6.29767a.99906.99906,0,0,1,1.49414-.35254l1.51848,1.13847a1.00633,1.00633,0,0,0,1.60106-.73145A7.96371,7.96371,0,0,0,53.749,30.4624ZM32.293,45.29346A.99989.99989,0,0,1,33.707,46.70752l-3,3a.99964.99964,0,0,1-1.41406,0l-3-3A.99989.99989,0,0,1,27.707,45.29346L30,47.58643Zm-15.13952-5.919A6.00581,6.00581,0,1,1,21.62608,43.847,6.01535,6.01535,0,0,1,17.15345,39.37441ZM36.707,52.70752a.95113.95113,0,0,1-1.18182.15424A8.66622,8.66622,0,0,1,30,54.50732a8.66622,8.66622,0,0,1-5.52521-1.64557.9902.9902,0,0,1-1.18182-1.5683l1-1a.99964.99964,0,0,1,1.41406,0,.98949.98949,0,0,1,.17792,1.14624c1.72241,1.40417,6.50769,1.40417,8.2301,0a.98949.98949,0,0,1,.17792-1.14624.99964.99964,0,0,1,1.41406,0l1,1A.99964.99964,0,0,1,36.707,52.70752ZM38.37392,43.847a6.00581,6.00581,0,1,1,4.47263-4.47263A6.01535,6.01535,0,0,1,38.37392,43.847Z"/><path d="M26.91876,38.804,24,38.22v.78046a1,1,0,0,1-2,0V38.22l-2.91876.58392a4.00035,4.00035,0,0,0,7.83752,0Z"/></g></svg>