<?xml version="1.0" ?><svg viewBox="0 0 60 60" xmlns="http://www.w3.org/2000/svg"><title/><g id="text"><text font-family="MyriadPro-Regular, Myriad Pro" font-size="9" transform="translate(7.08545 67.39014)"><tspan letter-spacing="0.00401em"/><tspan x="6.02979" y="0"/><tspan letter-spacing="-0.00401em" x="10.53857" y="0"/><tspan x="14.84033" y="0"/><tspan letter-spacing="-0.00401em" x="29.1499" y="0"/><tspan letter-spacing="-0.00597em" x="33.45166" y="0"/><tspan x="36.37695" xml:space="preserve" y="0"/><tspan letter-spacing="-0.06402em" x="9.92236" y="10.7998"/><tspan letter-spacing="-0.00396em" x="13.81934" y="10.7998"/><tspan x="18.12158" y="10.7998"/><tspan letter-spacing="-0.00602em" x="21.10059" y="10.7998"/><tspan x="24.02539" y="10.7998"/></text></g><g data-name="Layer 1" id="Layer_1"><path d="M45,44a3.25326,3.25326,0,0,0-1,.162V44a1,1,0,0,0-2,0v2.30652A5.78637,5.78637,0,0,0,38.39453,49.519,4.27311,4.27311,0,0,0,38.907,53.1264c-.89319,2.8222-2.38916,4.65649-3.97046,4.80328-1.43652.13623-2.90332-1.09863-4.042-3.377-.88568-1.77136-.9881-5.3468-.79205-9.56335,2.81226-.0575,5.41895-2.43829,6.08893-5.59534.65509-3.08771-.6062-5.93225-3.41418-7.95709a7.47733,7.47733,0,0,0,3.881-3.809,10.63855,10.63855,0,0,0-1.62317-10.902A2.14333,2.14333,0,0,0,36,15V13.40234A7.95537,7.95537,0,0,0,38,8,8,8,0,0,0,22,8a7.95359,7.95359,0,0,0,2,5.40234V15a2.14333,2.14333,0,0,0,.965,1.72589,10.63855,10.63855,0,0,0-1.62317,10.902,7.47733,7.47733,0,0,0,3.881,3.809c-2.808,2.02484-4.06927,4.86938-3.41418,7.95709a7.18262,7.18262,0,0,0,4.30768,5.239c-.2287,4.68707-.103,8.62958.9892,10.81427,1.43945,2.87891,3.46826,4.49268,5.6167,4.49268q.19922,0,.39941-.01855c2.422-.22522,4.43909-2.404,5.61847-5.981A4.08724,4.08724,0,0,0,43.8335,52.4082c.89258-1.23822.94714-3.09851.176-5.52136A.8915.8915,0,0,1,45,46a1,1,0,0,0,0-2ZM33,7a1,1,0,1,1-1,1A1,1,0,0,1,33,7Zm.20148,10.5838c.01294.01776.01617.03925.03046.05634a8.72211,8.72211,0,0,1,1.61475,9.13965,5.32716,5.32716,0,0,1-3.61505,3.06708,61.69815,61.69815,0,0,0-.061-11.89984A10.96277,10.96277,0,0,0,33.20148,17.5838Zm1.03339,21.39471a4.888,4.888,0,0,1-4.02112,3.99719c.13477-2.12793.32111-4.36237.507-6.57727.10419-1.24091.20837-2.48865.30554-3.72968C34.61743,34.87372,34.49561,37.75018,34.23486,38.97852ZM27,7a1,1,0,1,1-1,1A1,1,0,0,1,27,7Zm1.72754,29.231c-.17957,2.13965-.35516,4.24512-.4873,6.25262a5.37175,5.37175,0,0,1-2.4751-3.50507c-.262-1.23407-.38544-4.13184,3.25726-6.34076C28.92834,33.83307,28.82788,35.03516,28.72754,36.231Zm.49286-6.28571a5.28779,5.28779,0,0,1-4.06708-3.16547,8.72211,8.72211,0,0,1,1.61475-9.13965c.01428-.01709.01752-.03857.03046-.05634a11.26056,11.26056,0,0,0,2.3551.3866A59.00275,59.00275,0,0,1,29.2204,29.94525ZM29,12V11a1,1,0,0,1,2,0v1a1,1,0,0,1-2,0Z"/></g></svg>