<?xml version="1.0" ?><svg viewBox="0 0 60 60" xmlns="http://www.w3.org/2000/svg"><title/><g id="text"><text font-family="MyriadPro-Regular, Myriad Pro" font-size="9" transform="translate(6.9458 67.39014)"><tspan letter-spacing="0.00602em" x="0.81885" y="10.7998"/><tspan x="5.31006" y="10.7998"/><tspan letter-spacing="-0.01004em" x="13.85059" y="10.7998"/><tspan x="16.70313" y="10.7998"/></text></g><g data-name="Layer 1" id="Layer_1"><path d="M18.56335,23H3.77006a.501.501,0,0,0-.36181.84972,20.40385,20.40385,0,0,0,5.039,3.25575A.99995.99995,0,0,1,8,29H6.4607a.50264.50264,0,0,0-.32831.88032c3.35227,3.03821,7.21064,4.57992,11.24907,6.19513a1.087,1.087,0,0,1,.59494,1.15239A.96114.96114,0,0,1,17,38H15.39528a.50232.50232,0,0,0-.26553.92665C18.19149,40.98219,22.70365,40.92258,27,40.98541V34.9317c-4.778-.65768-7.52543-6.007-7.94382-11.46977A.49488.49488,0,0,0,18.56335,23Z"/><path d="M31,54V50a1,1,0,0,1,1-1h4.5a.5.5,0,0,0,.5-.5v-1a.5.5,0,0,0-.5-.5H32a1,1,0,0,1-1-1V27.65869a.98751.98751,0,0,1,.65027-.937,5.016,5.016,0,0,0,3.05082-6.44246,4.94079,4.94079,0,0,0-3.43372-3.12248,5.03993,5.03993,0,0,0-5.71851,7.20664,4.84074,4.84074,0,0,0,2.806,2.36009A1.00092,1.00092,0,0,1,29,27.769V57.5a.5.5,0,0,0,.5.5h10a.5.5,0,0,0,.5-.5v-2a.5.5,0,0,0-.5-.5H32A1,1,0,0,1,31,54ZM27.05621,22.58784a3.00191,3.00191,0,1,1,2.35595,2.35595A3.006,3.006,0,0,1,27.05621,22.58784Z"/><path d="M41.43665,23H56.22994a.501.501,0,0,1,.36181.84972,20.40385,20.40385,0,0,1-5.039,3.25575A.99995.99995,0,0,0,52,29h1.5393a.50264.50264,0,0,1,.32831.88032c-3.35227,3.03821-7.21064,4.57992-11.24907,6.19513a1.087,1.087,0,0,0-.59494,1.15239A.96114.96114,0,0,0,43,38h1.60472a.50232.50232,0,0,1,.26553.92665C41.80851,40.98219,37.29635,40.92258,33,40.98541V34.9317c4.778-.65768,7.52543-6.007,7.94382-11.46977A.49488.49488,0,0,1,41.43665,23Z"/></g></svg>