<?xml version="1.0" encoding="iso-8859-1"?>
<!-- Generator: Adobe Illustrator 16.0.0, SVG Export Plug-In . SVG Version: 6.00 Build 0)  -->
<!DOCTYPE svg PUBLIC "-//W3C//DTD SVG 1.1//EN" "http://www.w3.org/Graphics/SVG/1.1/DTD/svg11.dtd">
<svg version="1.1" id="Capa_1" xmlns="http://www.w3.org/2000/svg" xmlns:xlink="http://www.w3.org/1999/xlink" x="0px" y="0px"
	 width="191.053px" height="191.052px" viewBox="0 0 191.053 191.052" style="enable-background:new 0 0 191.053 191.052;"
	 xml:space="preserve">
<g>
	<g>
		<path d="M190.895,146.138c-2.028-22.646-22.519-43.62-36.234-60.312c-16.615-20.221-26.745-45.498-45.965-63.553
			C70.78-13.345,39.238,66.576,28.137,90.793C19.44,109.764,4.611,129.88,0.538,150.22c-5.213,26.036,28.794,24.842,45.402,25.253
			c32.924,4.9,65.657,0.957,99.302-2.21C164.832,171.417,193.435,174.486,190.895,146.138z M166.172,162.633
			c-13.59,1.413-27.234,1.487-40.857,3.248c-33.676,4.349-67.318,4.112-100.767-2.199c-1.699-0.321-3.002,0.438-3.727,1.551
			c-18.695-4.73-5.872-27.887,0.672-38.951c7.138-12.068,12.293-25.354,18.171-38.054c7.627-16.478,15.819-32.779,26.236-47.692
			c5.032-7.204,11.632-14.899,20.28-17.598c11.56-3.605,23.619,14.168,29.072,21.705c9.299,12.853,16.021,27.352,25.795,39.872
			c11.868,15.202,24.618,29.503,34.121,46.403C181.703,142.54,187.891,160.375,166.172,162.633z"/>
		<path d="M103.457,132.896c-3.247-3.921-8.313-6.497-13.172-7.708c-3.715-0.926-10.815-1.438-12.124,3.239
			c-0.028,0.099-0.015,0.193-0.03,0.291c-4.218,4.691-5.352,12.49-3.647,18.297c2.79,9.502,13.142,14.371,22.092,9.908
			C106.836,151.808,111.37,142.453,103.457,132.896z M80.939,144.276c-0.314-0.905-0.483-1.756-0.591-2.583
			c1.845,1.574,3.763,3.058,5.799,4.42c2.08,1.394,4.484,3.037,6.952,4.301C87.768,152.979,82.796,149.621,80.939,144.276z
			 M96.837,148.281c-2.112-1.464-4.684-2.423-6.912-3.566c-3.349-1.72-6.614-3.561-9.599-5.834c0.188-1.401,0.665-2.698,1.308-3.942
			c3.222,1.914,6.046,4.276,8.932,6.768c2.23,1.924,5.076,4.418,8.123,5.067C98.129,147.321,97.511,147.833,96.837,148.281z
			 M100.38,143.51c-1.26-0.72-2.617-1.267-3.896-1.98c-2.015-1.125-3.864-2.589-5.733-3.936c-2.489-1.794-5.024-3.551-7.815-4.783
			c0.212-0.305,0.413-0.613,0.64-0.914c0.218-0.02,0.437-0.037,0.657-0.059c4.893,4.121,10.421,8.426,16.219,10.983
			c0.002,0.021,0.012,0.04,0.013,0.062C100.479,143.108,100.398,143.297,100.38,143.51z"/>
		<path d="M112.25,57.926c-2.272-13.081-16-27.465-29.201-15.089c-16.168,15.157-12.936,88.785,15.285,74.179
			c1.723,1.787,5.547,1.758,6.662-1.386C111.139,98.299,115.426,76.214,112.25,57.926z M105.232,64.802
			c-2.964-2.095-6.25-3.818-9.271-5.783c-3.645-2.37-7.121-4.971-10.315-7.897c0.795-1.234,1.663-2.269,2.6-3.085
			c2.435,2.143,4.927,4.22,7.423,6.287c3.031,2.511,5.974,5.389,9.27,7.58C105.054,62.877,105.156,63.847,105.232,64.802z
			 M104.072,56.598c-1.983-1.61-4.102-3.094-6.064-4.612c-2.443-1.888-4.865-3.803-7.294-5.709
			C98.502,41.82,102.295,48.313,104.072,56.598z M84.875,105.715c3.452,2.319,6.757,4.911,10.471,6.53
			C90.887,112.5,87.418,109.963,84.875,105.715z M98.748,110.349c-4.875-2.751-10.128-5.857-15.541-7.936
			c-0.659-1.56-1.203-3.288-1.689-5.09c6.231,2.868,11.985,6.543,18.312,9.331c0.003,0.001,0.006,0.001,0.009,0.002
			C99.471,107.887,99.147,109.139,98.748,110.349z M100.566,104.194c-6.076-4.133-12.824-7.517-19.792-10.009
			c-0.404-1.977-0.709-4.049-0.934-6.167c5.992,5.216,13.756,9.649,21.163,11.625c0.269,0.072,0.504,0.045,0.719-0.019
			C101.351,101.151,100.988,102.684,100.566,104.194z M102.278,97.432c-0.076-0.08-0.144-0.163-0.245-0.229
			C94.706,92.486,86.398,90.541,79.58,84.9c-0.101-1.541-0.145-3.1-0.159-4.661c6.539,6.179,15.047,11.093,23.408,13.02
			c0.11,0.025,0.214,0.015,0.318,0.013C102.873,94.661,102.592,96.05,102.278,97.432z M103.603,90.818
			c-8.457-4.481-17.047-7.855-24.143-14.144c0.074-2.214,0.263-4.392,0.505-6.535c7.307,5.605,15.208,10.945,23.679,14.396
			c0.348,0.142,0.651,0.119,0.924,0.029C104.288,86.648,103.976,88.734,103.603,90.818z M105.392,76.823
			c-0.115,1.594-0.306,3.198-0.485,4.803c-0.011-0.008-0.016-0.018-0.025-0.024c-8.184-5.029-16.613-9.317-24.473-14.849
			c0.305-1.915,0.691-3.749,1.132-5.504c8.248,4.338,15.367,10.743,23.923,14.278C105.442,76.009,105.419,76.454,105.392,76.823z
			 M82.302,58.544c0.594-1.904,1.302-3.598,2.07-5.153c6.022,6.036,13.596,11.907,21.075,15.039c0.059,1.479,0.087,2.89,0.082,4.137
			C98.22,67.458,90.654,61.752,82.302,58.544z"/>
	</g>
</g>
<g>
</g>
<g>
</g>
<g>
</g>
<g>
</g>
<g>
</g>
<g>
</g>
<g>
</g>
<g>
</g>
<g>
</g>
<g>
</g>
<g>
</g>
<g>
</g>
<g>
</g>
<g>
</g>
<g>
</g>
</svg>
