<?xml version="1.0" encoding="iso-8859-1"?>
<!-- Generator: Adobe Illustrator 19.0.0, SVG Export Plug-In . SVG Version: 6.00 Build 0)  -->
<svg version="1.1" id="Layer_1" xmlns="http://www.w3.org/2000/svg" xmlns:xlink="http://www.w3.org/1999/xlink" x="0px" y="0px"
	 viewBox="0 0 392.663 392.663" style="enable-background:new 0 0 392.663 392.663;" xml:space="preserve">
<path style="fill:#FFC10D;" d="M21.851,299.692h24.048c6.012,0,10.925,4.848,10.925,10.925v44.8l52.558-52.558
	c2.004-2.004,4.784-3.168,7.758-3.168h125.737V154.108H21.851V299.692L21.851,299.692z"/>
<path style="fill:#56ACE0;" d="M149.786,132.322h103.952c6.012,0,10.925,4.848,10.925,10.925v24.372h10.99
	c2.844,0,5.624,1.164,7.758,3.168l52.558,52.558v-44.8c0-6.012,4.848-10.925,10.925-10.925h24.048V21.906H149.786V132.322
	L149.786,132.322z"/>
<g>
	<path style="fill:#194F82;" d="M381.737,0.12H138.925C132.913,0.12,128,4.969,128,11.045v121.212H10.925
		C4.913,132.257,0,137.106,0,143.183v167.434c0,6.012,4.848,10.925,10.925,10.925h24.048v60.186c0,4.396,2.521,8.663,6.723,10.02
		c6.077,2.069,9.826-0.323,11.895-2.392l67.943-67.943h132.202c6.012,0,10.925-4.848,10.925-10.925V189.34h6.465l67.943,67.943
		c4.655,4.719,10.537,2.909,11.895,2.392c4.073-1.681,6.723-5.624,6.723-10.02V189.47h24.048c6.012,0,10.925-4.848,10.925-10.925
		V10.981C392.598,4.969,387.749,0.12,381.737,0.12z M242.877,299.692H116.945c-2.844,0-5.624,1.164-7.758,3.168l-52.493,52.558
		v-44.8c0-6.012-4.848-10.925-10.925-10.925H21.851V154.108h221.026V299.692z M370.812,167.554h-24.048
		c-6.012,0-10.925,4.848-10.925,10.925v44.8l-52.558-52.558c-2.004-2.004-4.784-3.168-7.758-3.168h-10.99v-24.372
		c0-6.012-4.848-10.925-10.925-10.925H149.786V21.906h221.026V167.554z"/>
	<path style="fill:#194F82;" d="M195.943,102.52h12.283c6.012,0,10.925-4.848,10.925-10.925c0-6.077-4.848-10.925-10.925-10.925
		h-12.283c-6.012,0-10.925,4.848-10.925,10.925C185.018,97.672,189.931,102.52,195.943,102.52z"/>
	<path style="fill:#194F82;" d="M254.19,102.52h12.283c6.012,0,10.925-4.848,10.925-10.925c0-6.077-4.848-10.925-10.925-10.925
		H254.19c-6.012,0-10.925,4.848-10.925,10.925C243.265,97.672,248.178,102.52,254.19,102.52z"/>
	<path style="fill:#194F82;" d="M312.372,102.52h12.283c6.012,0,10.925-4.848,10.925-10.925c0-6.077-4.848-10.925-10.925-10.925
		h-12.283c-6.012,0-10.925,4.848-10.925,10.925C301.446,97.672,306.36,102.52,312.372,102.52z"/>
	<path style="fill:#194F82;" d="M68.008,241.962h12.283c6.012,0,10.925-4.848,10.925-10.925c0-6.012-4.848-10.925-10.925-10.925
		H68.008c-6.012,0-10.925,4.848-10.925,10.925C57.083,237.114,61.931,241.962,68.008,241.962z"/>
	<path style="fill:#194F82;" d="M126.255,241.962h12.283c6.012,0,10.925-4.848,10.925-10.925c0-6.012-4.848-10.925-10.925-10.925
		h-12.283c-6.012,0-10.925,4.848-10.925,10.925C115.329,237.114,120.242,241.962,126.255,241.962z"/>
	<path style="fill:#194F82;" d="M184.436,241.962h12.283c6.012,0,10.925-4.848,10.925-10.925c0-6.012-4.848-10.925-10.925-10.925
		h-12.283c-6.012,0-10.925,4.848-10.925,10.925S178.424,241.962,184.436,241.962z"/>
</g>
<g>
</g>
<g>
</g>
<g>
</g>
<g>
</g>
<g>
</g>
<g>
</g>
<g>
</g>
<g>
</g>
<g>
</g>
<g>
</g>
<g>
</g>
<g>
</g>
<g>
</g>
<g>
</g>
<g>
</g>
</svg>
