<svg id="_x31__x2C_5" enable-background="new 0 0 36 36" height="512" viewBox="0 0 36 36" width="512" xmlns="http://www.w3.org/2000/svg"><path d="m31.833 8.377c0 6.917 3.583 11.667 3.583 15s-1.916 10.333-17.249 10.333-17.584-9.417-17.584-13.083c0-17.167 31.25-24.5 31.25-12.25z" fill="#efefef"/><g fill="#a4afc1"><path d="m28.467 2.467h1v2h-1z" transform="matrix(.707 -.707 .707 .707 6.033 21.498)"/><path d="m32.533 6.533h1v2h-1z" transform="matrix(.707 -.707 .707 .707 4.349 25.564)"/><path d="m31.856 2.967h2v1h-2z" transform="matrix(.707 -.707 .707 .707 7.172 24.248)"/></g><path d="m25.25 29.25h-14.5c-1.105 0-2-.895-2-2v-18.5c0-1.105.895-2 2-2h14.5c1.105 0 2 .895 2 2v18.5c0 1.105-.895 2-2 2z" fill="#f3f3f1"/><path d="m11 27.25v-18.5c0-1.105.895-2 2-2h-2.25c-1.105 0-2 .895-2 2v18.5c0 1.105.895 2 2 2h2.25c-1.105 0-2-.895-2-2z" fill="#d5dbe1"/><path d="m15 27h-2.25c-.965 0-1.75-.785-1.75-1.75v-2.5c0-.965.785-1.75 1.75-1.75h2.25v1.5h-2.25c-.138 0-.25.112-.25.25v2.5c0 .138.112.25.25.25h2.25z"/><path d="m18.125 27h-2.125v-1.5h2.125c.207 0 .375-.168.375-.375s-.168-.375-.375-.375h-.25c-1.034 0-1.875-.841-1.875-1.875s.841-1.875 1.875-1.875h2.125v1.5h-2.125c-.207 0-.375.168-.375.375s.168.375.375.375h.25c1.034 0 1.875.841 1.875 1.875s-.841 1.875-1.875 1.875z"/><path d="m23.125 27h-2.125v-1.5h2.125c.207 0 .375-.168.375-.375s-.168-.375-.375-.375h-.25c-1.034 0-1.875-.841-1.875-1.875s.841-1.875 1.875-1.875h2.125v1.5h-2.125c-.207 0-.375.168-.375.375s.168.375.375.375h.25c1.034 0 1.875.841 1.875 1.875s-.841 1.875-1.875 1.875z"/><path d="m25.25 30h-14.5c-1.517 0-2.75-1.233-2.75-2.75v-18.5c0-1.517 1.233-2.75 2.75-2.75h14.5c1.517 0 2.75 1.233 2.75 2.75v18.5c0 1.517-1.233 2.75-2.75 2.75zm-14.5-22.5c-.689 0-1.25.561-1.25 1.25v18.5c0 .689.561 1.25 1.25 1.25h14.5c.689 0 1.25-.561 1.25-1.25v-18.5c0-.689-.561-1.25-1.25-1.25z"/></svg>