<svg id="Capa_1" enable-background="new 0 0 512 512" height="512" viewBox="0 0 512 512" width="512" xmlns="http://www.w3.org/2000/svg"><g><g><g><circle cx="256" cy="256" fill="#fee45a" r="203.389"/></g><g><path d="m459.385 256c0 112.332-91.053 203.385-203.385 203.385-21.58 0-42.379-3.363-61.886-9.589 12.722 2.502 25.864 3.803 39.306 3.803 112.322 0 203.385-91.063 203.385-203.385 0-90.743-59.424-167.603-141.469-193.797 93.505 18.318 164.049 100.703 164.049 199.583z" fill="#fed402"/></g><g><circle cx="256" cy="256" fill="#faf7f7" r="168.453"/></g><g><path d="m424.453 256c0 93.035-75.419 168.454-168.454 168.454-25.824 0-50.286-5.805-72.156-16.195 16.845 5.645 34.872 8.708 53.609 8.708 93.035 0 168.454-75.419 168.454-168.454 0-67.221-39.376-125.244-96.318-152.269 66.762 22.391 114.865 85.458 114.865 159.756z" fill="#ede1dd"/></g><g><path d="m171.362 165.056c-1.877.002-2.976-2.135-1.866-3.648 19.531-26.615 51.038-43.893 86.581-43.893 35.444 0 66.874 17.182 86.417 43.67 1.114 1.51.02 3.65-1.857 3.652z" fill="#fee45a"/></g><g><path d="m171.362 346.944c-1.877-.002-2.976 2.135-1.866 3.648 19.531 26.615 51.038 43.893 86.581 43.893 35.444 0 66.874-17.182 86.417-43.67 1.114-1.51.02-3.65-1.857-3.652z" fill="#fee45a"/></g><g><path d="m342.499 350.816c-19.548 26.484-50.976 43.67-86.419 43.67-14.103 0-27.565-2.722-39.896-7.667 5.645.921 11.44 1.401 17.356 1.401 34.271 0 64.799-16.065 84.447-41.087l22.651.03c1.881 0 2.972 2.142 1.861 3.653z" fill="#fed402"/></g><g><path d="m342.499 161.184c-19.548-26.484-50.976-43.67-86.419-43.67-14.103 0-27.565 2.722-39.896 7.667 5.645-.921 11.44-1.401 17.356-1.401 34.271 0 64.799 16.065 84.447 41.087l22.651-.03c1.881 0 2.972-2.141 1.861-3.653z" fill="#fed402"/></g><g><path d="m482.806 259.994c-1.148-2.539-1.148-5.45 0-7.989l20.816-46.036c2.902-6.417-1.791-13.69-8.834-13.69h-477.577c-7.043 0-11.736 7.272-8.834 13.69l20.816 46.036c1.148 2.539 1.148 5.45 0 7.989l-20.816 46.036c-2.902 6.417 1.791 13.69 8.834 13.69h477.578c7.043 0 11.736-7.272 8.834-13.69z" fill="#fea613"/></g><g><path d="m503.626 306.026c2.903 6.426-1.792 13.692-8.838 13.692h-23.982c7.046 0 11.741-7.267 8.838-13.692l-20.819-46.032c-1.151-2.542-1.151-5.445 0-7.987l20.819-46.032c2.903-6.426-1.792-13.692-8.838-13.692h23.982c7.046 0 11.741 7.267 8.838 13.692l-20.819 46.032c-1.151 2.542-1.151 5.445 0 7.987z" fill="#fb8801"/></g></g><g><path d="m256.078 110.008c-36.427 0-71.056 17.555-92.633 46.958-2.195 2.991-2.516 6.908-.835 10.221 1.682 3.317 5.034 5.375 8.749 5.375h.013l169.276-.218c3.72-.005 7.072-2.073 8.747-5.398 1.672-3.317 1.343-7.233-.86-10.218-21.584-29.255-56.148-46.72-92.457-46.72zm-73.704 47.527c18.801-20.525 45.64-32.514 73.704-32.514 27.962 0 54.736 11.919 73.528 32.323z"/><path d="m256.078 401.993c11.943 0 23.716-1.827 34.993-5.432 3.949-1.262 6.128-5.487 4.865-9.436-1.261-3.95-5.489-6.127-9.435-4.865-9.797 3.131-20.033 4.719-30.422 4.719-28.063 0-54.902-11.988-73.704-32.514l147.245.19c-4.339 4.726-9.125 9.028-14.305 12.854-3.335 2.463-4.042 7.163-1.579 10.498 2.462 3.335 7.163 4.04 10.499 1.579 9.276-6.852 17.452-15.032 24.302-24.314 2.203-2.986 2.532-6.901.86-10.219-1.676-3.325-5.027-5.393-8.747-5.398l-169.276-.218c-.005 0-.009 0-.013 0-3.715 0-7.067 2.059-8.749 5.375-1.681 3.314-1.361 7.23.834 10.22 21.576 29.406 56.205 46.961 92.632 46.961z"/><path d="m489.646 256.902c-.259-.574-.259-1.231 0-1.803l20.817-46.036c2.418-5.347 1.962-11.483-1.22-16.414-3.183-4.931-8.586-7.875-14.455-7.875h-40.297c-29.277-81.342-107.191-139.67-198.491-139.67-54.776 0-106.682 20.902-146.155 58.857-2.989 2.874-3.082 7.626-.208 10.614 2.875 2.989 7.627 3.082 10.614.208 36.662-35.251 84.872-54.665 135.749-54.665 82.893 0 153.91 51.762 182.464 124.655h-21.592c-27.397-61.636-89.189-104.732-160.872-104.732-71.685 0-133.484 43.094-160.88 104.732h-21.678c6.062-15.523 14.143-30.3 24.157-44.033l.782-1.063c2.457-3.339 1.742-8.039-1.598-10.495-3.341-2.456-8.039-1.74-10.495 1.599l-.801 1.088c-11.962 16.405-21.357 34.186-28.072 52.905h-40.204c-5.869 0-11.272 2.944-14.455 7.875-3.182 4.931-3.638 11.067-1.22 16.414l20.818 46.037c.258.572.258 1.229-.001 1.802l-20.816 46.035c-2.418 5.347-1.962 11.484 1.22 16.414 3.183 4.931 8.586 7.875 14.455 7.875h40.278c29.276 81.346 107.207 139.67 198.51 139.67 91.301 0 169.218-58.327 198.495-139.669h40.294c5.869 0 11.273-2.944 14.455-7.875s3.638-11.067 1.22-16.414zm-233.646-161.848c63.186 0 117.972 36.606 144.295 89.719h-288.588c26.324-53.112 81.107-89.719 144.293-89.719zm0 356.828c-82.892 0-153.909-51.762-182.463-124.655h21.586c27.395 61.637 89.192 104.732 160.877 104.732 71.684 0 133.479-43.095 160.874-104.732h21.593c-28.554 72.894-99.574 124.655-182.467 124.655zm-144.293-124.655h288.583c-26.324 53.112-81.105 89.719-144.29 89.719-63.186 0-117.969-36.607-144.293-89.719zm384.921-16.015c-.241.374-.802 1.002-1.84 1.002h-477.577c-1.038 0-1.598-.628-1.84-1.002-.241-.374-.583-1.143-.154-2.088l20.816-46.035c2.037-4.505 2.037-9.672 0-14.175l-20.816-46.037c-.428-.945-.087-1.714.154-2.088s.802-1.002 1.84-1.002h477.577c1.037 0 1.597.628 1.839 1.002.241.374.583 1.143.156 2.088l-20.817 46.038c-2.036 4.503-2.036 9.668-.001 14.172.001 0 .001.001.001.002l20.817 46.036c.428.944.087 1.713-.155 2.087z"/><path d="m155.477 223.95c-.025-.068-.053-.137-.08-.205-1.374-3.342-4.597-5.501-8.219-5.501-3.617.003-6.839 2.168-8.209 5.516-.023.057-.046.113-.068.171l-22.717 59.646c-1.476 3.875.469 8.212 4.343 9.687 3.874 1.474 8.212-.469 9.688-4.343l3.816-10.02h26.136l3.773 9.998c1.134 3.006 3.99 4.858 7.023 4.858 5.162.001 8.844-5.335 7.023-10.159zm-15.728 39.937 7.41-19.456 7.342 19.456z"/><path d="m372.208 233.81c4.146 0 7.507-3.361 7.507-7.507s-3.36-7.507-7.507-7.507h-25.258c-4.146 0-7.507 3.361-7.507 7.507v59.945c0 4.146 3.36 7.507 7.507 7.507h25.258c4.146 0 7.507-3.361 7.507-7.507s-3.36-7.507-7.507-7.507h-17.751v-14.959h15.888c4.146 0 7.507-3.361 7.507-7.507s-3.361-7.507-7.507-7.507h-15.888v-14.958z"/><path d="m421.035 220.034h-16.627c-1.993 0-3.905.793-5.313 2.204-1.407 1.411-2.197 3.324-2.193 5.317l.118 58.721c.007 1.991.805 3.898 2.218 5.301 1.406 1.396 3.308 2.179 5.289 2.179h.028c.502-.002 12.36-.047 17.098-.13 17.73-.31 30.598-15.757 30.598-36.731-.001-22.048-12.546-36.861-31.216-36.861zm.355 58.58c-2.158.038-5.942.068-9.383.089-.022-6.929-.068-36.446-.079-43.656h9.107c2.706 0 16.201 1.053 16.201 21.848 0 10.673-4.9 21.528-15.846 21.719z"/><path d="m234.991 249.434c-7.44-2.744-14.367-5.733-16.483-6.66-1.674-1.342-1.619-3.213-1.506-3.992.155-1.078.938-3.714 4.851-4.893 8.547-2.573 16.456 3.664 16.699 3.859 3.172 2.632 7.882 2.214 10.539-.948 2.667-3.173 2.258-7.909-.916-10.577-.571-.479-14.156-11.68-30.652-6.71-8.331 2.51-14.225 9.075-15.382 17.134-1.086 7.561 2.191 14.834 8.553 18.981.331.216.679.406 1.041.567.35.156 8.68 3.864 18.06 7.325 2.666.983 8.778 3.76 7.967 8.298-.607 3.404-4.747 6.924-10.622 6.924-6.029 0-11.83-2.43-15.52-6.502-2.785-3.073-7.533-3.304-10.604-.521-3.072 2.784-3.306 7.531-.522 10.603 6.489 7.159 16.449 11.433 26.645 11.433 12.723 0 23.405-8.116 25.402-19.299 1.504-8.412-2.318-19.404-17.55-25.022z"/><path d="m305.437 249.434c-7.44-2.744-14.367-5.733-16.483-6.66-1.674-1.342-1.619-3.213-1.506-3.993.154-1.078.937-3.713 4.85-4.892 8.54-2.575 16.455 3.664 16.7 3.859 3.172 2.632 7.881 2.214 10.539-.948 2.667-3.173 2.258-7.909-.916-10.577-.57-.478-14.149-11.681-30.653-6.71-8.331 2.51-14.225 9.075-15.381 17.134-1.086 7.561 2.191 14.834 8.553 18.981.331.216.679.406 1.041.567.35.156 8.68 3.864 18.06 7.325 2.666.983 8.778 3.76 7.967 8.298-.608 3.404-4.748 6.924-10.623 6.924-6.028 0-11.829-2.43-15.519-6.502-2.785-3.073-7.533-3.304-10.603-.521-3.072 2.784-3.306 7.531-.522 10.603 6.489 7.159 16.449 11.433 26.644 11.433 12.723 0 23.406-8.116 25.403-19.299 1.503-8.412-2.319-19.404-17.551-25.022z"/><path d="m84.103 218.244h-16.845c-2.354 0-4.496 1.074-5.92 2.902-1.005 1.29-1.587 2.965-1.587 4.605v60.498c0 4.146 3.36 7.507 7.507 7.507s7.507-3.361 7.507-7.507v-18.812c3.404-.017 7.168-.034 9.339-.034 13.737 0 24.913-11.026 24.913-24.58-.001-13.552-11.177-24.579-24.914-24.579zm0 34.145c-2.155 0-5.874.016-9.262.033-.018-3.505-.034-7.384-.034-9.599 0-1.878-.01-5.896-.02-9.565h9.316c5.366 0 9.9 4.38 9.9 9.565-.001 5.186-4.534 9.566-9.9 9.566z"/></g></g></svg>