<?xml version="1.0" encoding="iso-8859-1"?>
<!-- Generator: Adobe Illustrator 16.0.0, SVG Export Plug-In . SVG Version: 6.00 Build 0)  -->
<!DOCTYPE svg PUBLIC "-//W3C//DTD SVG 1.1//EN" "http://www.w3.org/Graphics/SVG/1.1/DTD/svg11.dtd">
<svg version="1.1" id="Capa_1" xmlns="http://www.w3.org/2000/svg" xmlns:xlink="http://www.w3.org/1999/xlink" x="0px" y="0px"
	 width="195.893px" height="195.893px" viewBox="0 0 195.893 195.893" style="enable-background:new 0 0 195.893 195.893;"
	 xml:space="preserve">
<g>
	<g>
		<path d="M191.899,83.289c-0.364-14.23,6.896-30.25-1.337-43.41c-1.625-2.598-4.815-2.873-7.147-1.728
			c-0.356-0.202-0.676-0.43-1.116-0.571c-21.787-6.959-51.26,1.086-73.691,2.436c-32.73,1.969-65.858-0.278-98.641-1.279
			c-1.649-2.482-4.991-2.132-6.729-0.073c-3.819,0.573-4.591,6.714-0.513,7.658c5.118,35.595,3.207,71.163,4.112,107.026
			c0.062,2.473,1.752,5.273,4.374,5.745c27.176,4.898,54.186-0.436,81.419-2.204c32.217-2.093,64.86,3.479,97.222,2.433
			c3.321-0.107,5.884-2.638,5.974-5.974C196.456,129.882,192.5,106.717,191.899,83.289z M115.118,145.248
			c-22.642-1.281-44.804,1.903-67.321,3.732c-3.434,0.279-29.077,3.051-29.246-3.585c-0.342-13.474,0.021-26.967-0.104-40.444
			c-0.178-19.151-1.303-38.16-5.673-56.742c54.14,9.21,114.21,5.358,168.162-0.549c0.385-0.042,0.701-0.189,1.046-0.293
			c3.374,13.933-1.925,29.888-1.679,43.945c0.328,18.809,3.416,37.327,3.592,56.128
			C160.929,147.859,138.058,146.547,115.118,145.248z"/>
		<path d="M84.483,127.978c-5.406-9.015-12.395-16.569-19.822-23.948c-0.038-0.037-0.08-0.045-0.118-0.08
			c-0.3-0.455-0.686-0.859-1.138-1.207c4.705-2.775,8.086-7.505,8.692-13.8c0.491-5.092-0.662-9.909-2.886-14.475
			c-1.936-3.973-6.915-10.28-11.833-9.664c-1.055,0.132-1.851,0.643-2.405,1.314c-19.672,1.493-28.618,31.423-9.102,38.137
			c-7.647,6.72-12.285,15.884-16.521,25.203c-1.369,3.012,0.224,6.6,3.826,6.666c16.227,0.297,32.281,1.266,48.416-1.039
			C84.729,134.637,85.939,130.405,84.483,127.978z M55.256,70.538c1.556,2.213,4.213,3.593,5.824,5.908
			c1.856,2.665,2.768,5.888,2.962,9.098c0.445,7.363-4.409,11.587-11.487,11.43C35.976,96.606,43.922,74.391,55.256,70.538z"/>
		<path d="M155.72,66.657c-6.344-4.801-18.238-3.176-25.75-3.11c-11.236,0.099-22.792,0.734-33.741,3.416
			c-2.623,0.643-2.079,4.823,0.638,4.716c9.881-0.389,19.721-0.793,29.616-0.57c8.548,0.194,20.437,3.829,28.512,1.097
			C157.656,71.305,157.81,68.239,155.72,66.657z"/>
		<path d="M158.207,80.77c-3.352-2.494-8.845-1.59-12.803-1.705c-7.866-0.228-15.725-0.519-23.595-0.586
			c-5.514-0.047-21.651-2.397-25.092,3.98c-0.895,1.657,1.213,3.291,2.588,1.996c1.084-1.021,8.803,0.076,10.289,0.125
			c5.869,0.198,11.724,0.515,17.583,0.923c7.517,0.523,24.526,4.974,31.03,0.307C160.098,84.453,160.042,82.135,158.207,80.77z"/>
		<path d="M163.35,97.248c-3.553-2.719-10.244-1.434-14.457-1.501c-8.464-0.133-16.929-0.223-25.394-0.217
			c-2.965,0.002-22.267-1.758-22.194,4.319c0.025,2.142,3.289,2.676,3.791,0.513c-0.312,1.338,25.981,2.076,28.67,2.211
			c7.067,0.356,23.571,4.379,29.584-0.123C165.283,101.002,165.248,98.7,163.35,97.248z"/>
		<path d="M154.187,110.683c-8.056-0.826-17.251,1.189-25.477,1.265c-7.121,0.066-15.08-1.252-21.967,0.778
			c-1.143,0.337-1.101,1.914,0,2.271c6.912,2.231,14.753,2.123,21.967,2.688c8.161,0.638,19.463,2.572,27.079-1.08
			C158.936,115.096,157,110.972,154.187,110.683z"/>
		<path d="M163.104,124.199c-9.308-0.22-19.04,2.234-28.478,2.515c-9.188,0.272-18.428-0.249-27.568,0.431
			c-2.263,0.168-2.711,3.187-0.532,3.93c8.809,3.006,18.86,2.864,28.101,3.043c9.127,0.178,22.034,1.467,30.33-3.074
			C168.252,129.238,166.65,124.284,163.104,124.199z"/>
	</g>
</g>
<g>
</g>
<g>
</g>
<g>
</g>
<g>
</g>
<g>
</g>
<g>
</g>
<g>
</g>
<g>
</g>
<g>
</g>
<g>
</g>
<g>
</g>
<g>
</g>
<g>
</g>
<g>
</g>
<g>
</g>
</svg>
