<?xml version="1.0" encoding="iso-8859-1"?>
<!-- Generator: Adobe Illustrator 21.0.0, SVG Export Plug-In . SVG Version: 6.00 Build 0)  -->
<svg xmlns="http://www.w3.org/2000/svg" xmlns:xlink="http://www.w3.org/1999/xlink" version="1.1" id="Capa_1" x="0px" y="0px" viewBox="0 0 512.002 512.002" style="enable-background:new 0 0 512.002 512.002;" xml:space="preserve" width="512" height="512">
<g>
	<g>
		<path style="fill-rule:evenodd;clip-rule:evenodd;fill:#666666;" d="M180.028,77.371c55.228,0,100,42.224,100,94.308    c0,12.508-2.585,24.446-7.275,35.368c4.398,4.351,7.132,10.378,7.132,17.015c0,13.181-10.782,23.964-23.963,23.964h-16.687v24.605    c0,5.5-4.5,10-10,10h-100c-5.5,0-10-4.5-10-10v-24.605h-15.101c-13.18,0-23.963-10.783-23.963-23.963    c0-6.418,2.573-12.507,7.132-17.017c-4.69-10.922-7.275-22.86-7.275-35.368C80.028,119.595,124.8,77.371,180.028,77.371    L180.028,77.371z M320.028,250V150c0-77-63-140-140-140s-140,63-140,140v100c0,22.814,9.678,43.477,25.134,58.084    C79.51,321.654,98.842,330,120.028,330h120c21.186,0,40.517-8.347,54.866-21.916C310.349,293.477,320.028,272.814,320.028,250z"/>
		<path style="fill-rule:evenodd;clip-rule:evenodd;fill:#F9F9F9;" d="M280.028,171.679c0-52.084-44.772-94.308-100-94.308    c-55.228,0-100,42.224-100,94.308c0,12.508,2.585,24.446,7.275,35.368c-4.559,4.509-7.132,10.598-7.132,17.017    c0,13.18,10.784,23.963,23.963,23.963h15.101v24.605c0,5.5,4.5,10,10,10h100c5.5,0,10-4.5,10-10v-24.605h16.687    c13.181,0,23.963-10.783,23.963-23.964c0-6.637-2.734-12.665-7.132-17.015C277.443,196.125,280.028,184.187,280.028,171.679    L280.028,171.679z M200.027,180.001c0-11.046,8.954-20,20-20c11.046,0,20,8.954,20,20c0,11.046-8.954,20-20,20    C208.981,200.001,200.027,191.046,200.027,180.001L200.027,180.001z M140.028,160c11.046,0,20,8.954,20,20    c0,11.046-8.954,20-20,20c-11.046,0-20-8.954-20-20C120.028,168.955,128.982,160,140.028,160z"/>
		<circle style="fill-rule:evenodd;clip-rule:evenodd;fill:#666666;" cx="140.028" cy="180.001" r="20"/>
		<circle style="fill-rule:evenodd;clip-rule:evenodd;fill:#666666;" cx="220.027" cy="180.001" r="20"/>
		<path style="fill-rule:evenodd;clip-rule:evenodd;fill:#AA836D;" d="M294.531,355.289L147.818,502.002h56.568L336.49,369.899    l9.319-9.319l56.568-56.569c7.778-7.778,7.779-20.506,0-28.284c-7.779-7.778-20.506-7.778-28.284,0l-55.866,55.866    L294.531,355.289z"/>
		<path style="fill-rule:evenodd;clip-rule:evenodd;fill:#666666;" d="M336.49,369.899L204.387,502.002h135.641V397.778    C340.027,388.162,338.797,378.82,336.49,369.899z"/>
		<path style="fill-rule:evenodd;clip-rule:evenodd;fill:#F9F9F9;" d="M345.808,360.58L487.23,502.002    c22.164-82.717-36.974-150.112-84.853-197.99L345.808,360.58z"/>
		<path style="fill-rule:evenodd;clip-rule:evenodd;fill:#666666;" d="M147.818,502.002l146.713-146.713    c-17.339,12.201-38.445,19.378-61.17,19.378H126.694c-34.739,0-65.696-16.769-85.197-42.624    c-13.489,18.493-21.469,41.227-21.469,65.736v104.223H147.818z"/>
		<path style="fill-rule:evenodd;clip-rule:evenodd;fill:#999999;" d="M126.694,374.667h106.667c22.725,0,43.831-7.177,61.17-19.378    l23.695-23.695c-6.582-8.931-14.453-16.862-23.331-23.507C280.545,321.654,261.214,330,240.027,330h-120    c-21.186,0-40.518-8.346-54.866-21.916c-9.029,6.759-17.016,14.843-23.665,23.958C60.999,357.898,91.955,374.667,126.694,374.667z    "/>
	</g>
	<g>
		<path d="M70.171,224.063c0,18.727,15.236,33.962,33.963,33.962h5.101v14.605c0,11.027,8.972,19.999,20,19.999h100    c11.028,0,20-8.972,20-19.999v-14.605h6.687c18.727,0,33.963-15.236,33.963-33.964c0-6.784-1.987-13.265-5.689-18.792    c3.872-10.785,5.832-22.058,5.832-33.591c0-57.516-49.346-104.308-110-104.308s-110,46.792-110,104.308    c0,11.534,1.959,22.806,5.832,33.591C72.157,210.797,70.171,217.278,70.171,224.063z M180.028,87.371c49.626,0,90,37.82,90,84.308    c0,10.862-2.175,21.435-6.463,31.423c-1.622,3.777-0.767,8.163,2.155,11.054c2.686,2.657,4.165,6.176,4.165,9.906    c0,7.7-6.264,13.964-13.963,13.964h-16.687c-5.523,0-10,4.478-10,10v24.604l-19.997,0v-24.605c0-5.522-4.477-10-10-10    s-10,4.478-10,10v24.605h-20.001v-24.605c0-5.522-4.477-10-10-10s-10,4.478-10,10v24.605l-20.001,0v-24.605    c0-5.522-4.477-10-10-10h-15.101c-7.7,0-13.963-6.264-13.963-13.962c0-3.732,1.479-7.251,4.164-9.907    c2.923-2.891,3.779-7.277,2.156-11.055c-4.289-9.988-6.463-20.561-6.463-31.423C90.028,125.191,130.401,87.371,180.028,87.371z"/>
		<path d="M140.028,210c16.542,0,30-13.458,30-30s-13.458-30-30-30s-30,13.458-30,30S123.486,210,140.028,210z M140.028,170    c5.514,0,10,4.486,10,10s-4.486,10-10,10s-10-4.486-10-10S134.514,170,140.028,170z"/>
		<path d="M220.028,210c16.542,0,30-13.458,30-30s-13.458-30-30-30s-30,13.458-30,30S203.486,210,220.028,210z M220.028,170    c5.514,0,10,4.486,10,10s-4.486,10-10,10s-10-4.486-10-10S214.513,170,220.028,170z"/>
		<path d="M479.86,385.173c-17.153-31.615-41.756-59.15-64.568-82.338c1.909-3.992,2.92-8.398,2.92-12.966    c0-8.028-3.112-15.562-8.764-21.213c-11.696-11.696-30.728-11.696-42.426,0l-48.045,48.045c-2.988-3.348-6.155-6.528-9.49-9.531    c12.827-15.557,20.541-35.479,20.541-57.17V150c0-82.71-67.29-150-150-150c-24.838,0-49.492,6.272-71.295,18.139    c-4.851,2.64-6.643,8.713-4.003,13.563c2.641,4.853,8.713,6.643,13.564,4.003C137.172,25.431,158.519,20,180.028,20    c71.682,0,130,58.317,130,130v100c0,19.719-8.208,37.546-21.372,50.281c-0.451,0.361-0.877,0.763-1.269,1.21    C274.912,312.973,258.277,320,240.027,320h-120c-18.249,0-34.884-7.026-47.358-18.508c-0.393-0.449-0.82-0.852-1.273-1.214    c-13.162-12.735-21.37-30.562-21.37-50.279V150c0-21.507,5.43-42.852,15.702-61.729c2.64-4.852,0.847-10.924-4.004-13.564    c-4.85-2.639-10.923-0.846-13.563,4.004C36.298,100.513,30.028,125.164,30.028,150v100c0,21.688,7.712,41.608,20.536,57.164    c-6.127,5.529-11.649,11.634-16.499,18.198c-0.495,0.55-0.92,1.145-1.274,1.773c-14.578,20.48-22.763,45.197-22.763,70.643    v104.224c0,5.522,4.477,10,10,10s10-4.478,10-10V397.778c0-17.231,4.501-34.067,12.698-48.949    c21.882,22.646,52.354,35.838,83.969,35.838h106.667c6.505,0,12.938-0.554,19.259-1.609L140.747,494.931    c-3.905,3.905-3.905,10.237,0,14.143c3.905,3.904,10.237,3.904,14.143,0l226.275-226.274c3.899-3.898,10.244-3.897,14.142,0    c1.873,1.873,2.905,4.384,2.905,7.07s-1.031,5.197-2.905,7.07l-197.99,197.991c-3.905,3.905-3.905,10.237,0,14.143    c1.953,1.952,4.512,2.929,7.071,2.929s5.119-0.977,7.071-2.929l118.319-118.32c0.161,2.336,0.25,4.679,0.25,7.025v104.224    c0,5.522,4.478,10,10,10s10-4.478,10-10V397.778c0-6.92-0.604-13.817-1.771-20.608l32.905,32.905    c1.953,1.952,4.512,2.929,7.071,2.929s5.118-0.977,7.071-2.929c3.905-3.905,3.905-10.237,0-14.143l-35.353-35.353l42.387-42.387    c46.969,48.056,86.741,100.994,78.74,163.515l-29.205-29.206c-3.904-3.903-10.234-3.904-14.143,0    c-3.905,3.905-3.905,10.237,0,14.143l42.429,42.43c1.9,1.899,4.454,2.929,7.072,2.929c0.862,0,1.731-0.111,2.587-0.341    c3.451-0.925,6.146-3.62,7.071-7.071C507.366,465.488,501.637,425.311,479.86,385.173z M233.361,364.667H126.694    c-27.991,0-53.958-11.834-72.36-32.711c3.253-3.846,6.801-7.466,10.622-10.823C80.188,332.952,99.299,340,120.028,340h120    c20.731,0,39.845-7.05,55.078-18.872c3.451,3.025,6.69,6.28,9.708,9.737l-16.683,16.683    C271.946,358.743,253.029,364.667,233.361,364.667z"/>
		<path d="M424.197,424.884c-3.537-4.245-9.841-4.812-14.082-1.278c-4.242,3.536-4.813,9.845-1.278,14.087    c1.979,2.374,4.822,3.599,7.688,3.599c2.258,0,4.527-0.76,6.396-2.317c4.243-3.536,4.816-9.842,1.281-14.084L424.197,424.884z"/>
		<path d="M81.032,61.006c2.401,0,4.811-0.859,6.727-2.602c4.086-3.715,4.388-10.039,0.673-14.126s-10.04-4.387-14.126-0.673    L74.3,43.61c-4.086,3.715-4.385,10.037-0.67,14.124C75.603,59.904,78.312,61.006,81.032,61.006z"/>
	</g>
</g>















</svg>
